<svg xmlns="http://www.w3.org/2000/svg" xmlns:xlink="http://www.w3.org/1999/xlink" width="331" height="169" viewBox="0 0 331 169">
  <defs>
    <clipPath id="clip-path">
      <rect id="Background" width="331" height="169" rx="8" fill="#fff1ef"/>
    </clipPath>
    <clipPath id="clip-path-2">
      <path id="Clip_2" data-name="Clip 2" d="M0,0H40V61H0Z" fill="none"/>
    </clipPath>
    <clipPath id="clip-path-3">
      <path id="Clip_5" data-name="Clip 5" d="M0,0H8V61H0Z" fill="none"/>
    </clipPath>
    <clipPath id="clip-path-4">
      <path id="Clip_2-2" data-name="Clip 2" d="M0,0H38V58H0Z" fill="none"/>
    </clipPath>
    <clipPath id="clip-path-5">
      <path id="Clip_5-2" data-name="Clip 5" d="M0,0H8V58H0Z" fill="none"/>
    </clipPath>
  </defs>
  <g id="Background-2" data-name="Background" clip-path="url(#clip-path)">
    <g id="_04" data-name="04" transform="translate(-18 95)" opacity="0.5">
      <path id="Fill_16" data-name="Fill 16" d="M7.5,0A7.5,7.5,0,1,1,0,7.5,7.5,7.5,0,0,1,7.5,0" transform="translate(14 51)" fill="#7fd9b2"/>
      <path id="Fill_18" data-name="Fill 18" d="M5.5,0A5.5,5.5,0,1,1,0,5.5,5.5,5.5,0,0,1,5.5,0" transform="translate(38 22)" fill="#7fd9b2"/>
      <path id="Fill_26" data-name="Fill 26" d="M16.575,22,0,7.63,21,0Z" transform="translate(49 46)" fill="#f16e72"/>
      <path id="Fill_36" data-name="Fill 36" d="M11.917,4.847a.747.747,0,0,0-1.494,0l.032,2.534A15.445,15.445,0,0,0,.929.025a.76.76,0,0,0-.4,1.466A13.961,13.961,0,0,1,9.11,8.028,7.688,7.688,0,0,0,7.931,7.48c-.909-.329-1.3,1.139-.4,1.466a5.724,5.724,0,0,1,3.074,2.692.745.745,0,0,0,1.035.248A.769.769,0,0,0,12,11.253Z" transform="translate(0 24)" fill="#2c2b46"/>
      <path id="Fill_38" data-name="Fill 38" d="M6.442,8.414l-.4,1.593A32.306,32.306,0,0,0,1.475.327.869.869,0,0,0,.376.105.646.646,0,0,0,.1,1.027,31.2,31.2,0,0,1,4.347,9.875,11.864,11.864,0,0,0,1.466,8.707.813.813,0,0,0,.5,9.221a.688.688,0,0,0,.538.824,9.537,9.537,0,0,1,3.873,2.024c.026.125.069.246.1.37a.654.654,0,0,0,.747.5.777.777,0,0,0,.124-.024.867.867,0,0,0,1.088-.276.63.63,0,0,0,.064-.128q.473-1.863.946-3.726c.22-.873-1.317-1.243-1.536-.37" transform="translate(45 69)" fill="#2c2b46"/>
      <path id="Fill_40" data-name="Fill 40" d="M9.984,7.167c.19-.955-1.339-1.363-1.531-.4a14.851,14.851,0,0,0-.237,1.885A22.1,22.1,0,0,0,1.14.149C.325-.442-.471.877.337,1.46A20.176,20.176,0,0,1,6.873,9.5a6.165,6.165,0,0,0-2.347-.364.759.759,0,1,0,0,1.518,4.57,4.57,0,0,1,3.2,1.1c.032.1.072.2.1.3a.708.708,0,0,0,.611.513c.02.03.05.05.071.081a.819.819,0,0,0,1.1.238.746.746,0,0,0,.35-.823,12.8,12.8,0,0,1,.023-4.892" transform="translate(25)" fill="#2c2b46"/>
      <path id="Fill_50" data-name="Fill 50" d="M1.5,0A1.5,1.5,0,1,1,0,1.5,1.5,1.5,0,0,1,1.5,0" transform="translate(56 90)" fill="#2c2b46"/>
      <path id="Fill_62" data-name="Fill 62" d="M1.5,0A1.5,1.5,0,1,1,0,1.5,1.5,1.5,0,0,1,1.5,0" transform="translate(39 46)" fill="#2c2b46"/>
    </g>
    <g id="_03" data-name="03" transform="translate(299 127)" opacity="0.3">
      <g id="Group_3" data-name="Group 3">
        <path id="Clip_2-3" data-name="Clip 2" d="M0,0H40V61H0Z" fill="none"/>
        <g id="Group_3-2" data-name="Group 3" clip-path="url(#clip-path-2)">
          <path id="Fill_1" data-name="Fill 1" d="M40,6.374V54.626A6.389,6.389,0,0,1,33.611,61H6.389A6.389,6.389,0,0,1,0,54.626V6.374A6.389,6.389,0,0,1,6.389,0H33.611A6.389,6.389,0,0,1,40,6.374" fill="#f9c7d2"/>
        </g>
      </g>
      <g id="Group_6" data-name="Group 6" transform="translate(32)">
        <path id="Clip_5-3" data-name="Clip 5" d="M0,0H8V61H0Z" fill="none"/>
        <g id="Group_6-2" data-name="Group 6" clip-path="url(#clip-path-3)">
          <path id="Fill_4" data-name="Fill 4" d="M8,6.374V54.626A6.123,6.123,0,0,1,2.179,61H0a6.123,6.123,0,0,0,5.821-6.374V6.374A6.123,6.123,0,0,0,0,0H2.179A6.123,6.123,0,0,1,8,6.374" fill="#f6adb6"/>
        </g>
      </g>
      <path id="Fill_7" data-name="Fill 7" d="M33,2.872V52.128A2.865,2.865,0,0,1,30.148,55H2.852A2.865,2.865,0,0,1,0,52.128V2.872A2.865,2.865,0,0,1,2.852,0H5.7a.9.9,0,0,1,.858.629l.705,2.2a1.306,1.306,0,0,0,1.246.915H24.489a1.307,1.307,0,0,0,1.246-.915l.705-2.2A.9.9,0,0,1,27.3,0h2.849A2.865,2.865,0,0,1,33,2.872" transform="translate(3 3)" fill="#fff3f6"/>
      <path id="Fill_9" data-name="Fill 9" d="M5,2.872V52.128A2.8,2.8,0,0,1,2.287,55H0a2.8,2.8,0,0,0,2.713-2.872V2.872A2.8,2.8,0,0,0,0,0H2.287A2.8,2.8,0,0,1,5,2.872" transform="translate(32 3)" fill="#fce0e7"/>
      <path id="Fill_11" data-name="Fill 11" d="M11.065,0H.935A.969.969,0,0,0,0,1,.969.969,0,0,0,.935,2H11.065A.969.969,0,0,0,12,1a.969.969,0,0,0-.935-1" transform="translate(13 2)" fill="#f6adb6"/>
      <path id="Fill_13" data-name="Fill 13" d="M11.065,0H.935A.969.969,0,0,0,0,1,.969.969,0,0,0,.935,2H11.065A.969.969,0,0,0,12,1a.969.969,0,0,0-.935-1" transform="translate(13 52)" fill="#f6adb6"/>
    </g>
    <g id="_02" data-name="02" transform="translate(147 25)">
      <g id="Group_3-3" data-name="Group 3">
        <path id="Clip_2-4" data-name="Clip 2" d="M0,0H38V58H0Z" fill="none"/>
        <g id="Group_3-4" data-name="Group 3" clip-path="url(#clip-path-4)">
          <path id="Fill_1-2" data-name="Fill 1" d="M38,6.061V51.939A6.072,6.072,0,0,1,31.931,58H6.069A6.072,6.072,0,0,1,0,51.939V6.061A6.072,6.072,0,0,1,6.069,0H31.931A6.072,6.072,0,0,1,38,6.061" fill="#f9c7d2"/>
        </g>
      </g>
      <g id="Group_6-3" data-name="Group 6" transform="translate(30)">
        <path id="Clip_5-4" data-name="Clip 5" d="M0,0H8V58H0Z" fill="none"/>
        <g id="Group_6-4" data-name="Group 6" clip-path="url(#clip-path-5)">
          <path id="Fill_4-2" data-name="Fill 4" d="M8,6.061V51.939A5.951,5.951,0,0,1,2.179,58H0a5.951,5.951,0,0,0,5.821-6.061V6.061A5.951,5.951,0,0,0,0,0H2.179A5.951,5.951,0,0,1,8,6.061" fill="#f6adb6"/>
        </g>
      </g>
      <path id="Fill_7-2" data-name="Fill 7" d="M31,2.715V49.285A2.7,2.7,0,0,1,28.321,52H2.679A2.7,2.7,0,0,1,0,49.285V2.715A2.7,2.7,0,0,1,2.679,0H5.355a.849.849,0,0,1,.806.594l.663,2.083a1.228,1.228,0,0,0,1.171.865H23.005a1.229,1.229,0,0,0,1.171-.865L24.838.594A.848.848,0,0,1,25.644,0h2.677A2.7,2.7,0,0,1,31,2.715" transform="translate(3 3)" fill="#fff3f6"/>
      <path id="Fill_9-2" data-name="Fill 9" d="M5,2.715V49.285A2.717,2.717,0,0,1,2.287,52H0a2.717,2.717,0,0,0,2.713-2.715V2.715A2.717,2.717,0,0,0,0,0H2.287A2.717,2.717,0,0,1,5,2.715" transform="translate(30 3)" fill="#fce0e7"/>
      <path id="Fill_11-2" data-name="Fill 11" d="M10.143,0H.857A.937.937,0,0,0,0,1,.937.937,0,0,0,.857,2h9.285A.937.937,0,0,0,11,1a.937.937,0,0,0-.857-1" transform="translate(13 2)" fill="#f6adb6"/>
      <path id="Fill_13-2" data-name="Fill 13" d="M10.143,0H.857A.937.937,0,0,0,0,1,.937.937,0,0,0,.857,2h9.285A.937.937,0,0,0,11,1a.937.937,0,0,0-.857-1" transform="translate(13 49)" fill="#f6adb6"/>
    </g>
    <g id="_01" data-name="01" transform="matrix(-1, -0.017, 0.017, -1, 350.512, 83.507)" opacity="0.2">
      <path id="Fill_16-2" data-name="Fill 16" d="M7,0A7,7,0,1,1,0,7,7,7,0,0,1,7,0" transform="translate(13.478 48.158)" fill="#7fd9b2"/>
      <path id="Fill_18-2" data-name="Fill 18" d="M5,0A5,5,0,1,1,0,5,5,5,0,0,1,5,0" transform="translate(35.968 20.796)" fill="#7fd9b2"/>
      <path id="Fill_26-2" data-name="Fill 26" d="M15.785,21,0,7.283,20,0Z" transform="translate(46.464 43.53)" fill="#f16e72"/>
      <path id="Fill_36-2" data-name="Fill 36" d="M10.924,4.443a.685.685,0,0,0-1.369,0l.03,2.323A14.158,14.158,0,0,0,.852.023.7.7,0,0,0,.489,1.367,12.8,12.8,0,0,1,8.351,7.359a7.048,7.048,0,0,0-1.08-.5C6.437,6.555,6.083,7.9,6.907,8.2a5.247,5.247,0,0,1,2.818,2.468.682.682,0,0,0,.949.227A.705.705,0,0,0,11,10.315Z" transform="translate(0 22.416)" fill="#2c2b46"/>
      <path id="Fill_38-2" data-name="Fill 38" d="M6.442,7.767l-.4,1.471A28.858,28.858,0,0,0,1.475.3.918.918,0,0,0,.376.1.575.575,0,0,0,.1.948,27.907,27.907,0,0,1,4.347,9.115,12.445,12.445,0,0,0,1.466,8.037.826.826,0,0,0,.5,8.511a.636.636,0,0,0,.538.76,9.83,9.83,0,0,1,3.873,1.869c.026.115.069.227.1.342a.653.653,0,0,0,.747.461.834.834,0,0,0,.124-.022.912.912,0,0,0,1.088-.255.564.564,0,0,0,.064-.119q.473-1.719.946-3.439C8.2,7.3,6.662,6.961,6.442,7.767" transform="translate(42.77 65.702)" fill="#2c2b46"/>
      <path id="Fill_40-2" data-name="Fill 40" d="M8.985,6.616c.171-.881-1.205-1.258-1.378-.372a14.043,14.043,0,0,0-.214,1.74A20.29,20.29,0,0,0,1.026.137C.293-.408-.424.809.3,1.347A18.539,18.539,0,0,1,6.186,8.772a5.422,5.422,0,0,0-2.112-.336c-.916.038-.921,1.438,0,1.4A4.049,4.049,0,0,1,6.956,10.85c.029.095.065.181.09.273a.642.642,0,0,0,.55.474c.018.027.045.046.064.075a.726.726,0,0,0,.99.22.7.7,0,0,0,.315-.76,12.108,12.108,0,0,1,.02-4.516" transform="translate(24.621 0)" fill="#2c2b46"/>
      <path id="Fill_50-2" data-name="Fill 50" d="M1.5,0A1.5,1.5,0,1,1,0,1.5,1.5,1.5,0,0,1,1.5,0" transform="translate(53.022 84.569)" fill="#2c2b46"/>
      <path id="Fill_62-2" data-name="Fill 62" d="M1.5,0A1.5,1.5,0,1,1,0,1.5,1.5,1.5,0,0,1,1.5,0" transform="translate(37.309 43.837)" fill="#2c2b46"/>
    </g>
  </g>
</svg>
