<svg id="_01" data-name="01" xmlns="http://www.w3.org/2000/svg" xmlns:xlink="http://www.w3.org/1999/xlink" width="331" height="185" viewBox="0 0 331 185">
  <defs>
    <clipPath id="clip-path">
      <rect id="Background" width="331" height="185" rx="8" fill="#fef7df"/>
    </clipPath>
    <linearGradient id="linear-gradient" x1="0.004" y1="0.213" x2="0.859" y2="0.708" gradientUnits="objectBoundingBox">
      <stop offset="0" stop-color="#f7e07d"/>
      <stop offset="1" stop-color="#e69642"/>
    </linearGradient>
    <linearGradient id="linear-gradient-2" x1="0.423" y1="0.245" x2="0.732" y2="1.131" gradientUnits="objectBoundingBox">
      <stop offset="0" stop-color="#addee6"/>
      <stop offset="1" stop-color="#72b9c4"/>
    </linearGradient>
    <linearGradient id="linear-gradient-3" x1="0.5" y1="0.881" x2="0.5" y2="-0.014" gradientUnits="objectBoundingBox">
      <stop offset="0" stop-color="#81c2cd" stop-opacity="0"/>
      <stop offset="1" stop-color="#81c2cd"/>
    </linearGradient>
    <linearGradient id="linear-gradient-4" x1="0.004" y1="0.213" x2="0.859" y2="0.708" gradientUnits="objectBoundingBox">
      <stop offset="0" stop-color="#fce152"/>
      <stop offset="1" stop-color="#e7b449"/>
    </linearGradient>
  </defs>
  <g id="Background-2" data-name="Background">
    <rect id="Background-3" data-name="Background" width="331" height="185" rx="8" fill="none"/>
    <g id="Background-4" data-name="Background" clip-path="url(#clip-path)">
      <g id="_03" data-name="03" transform="translate(-15 108)" opacity="0.5">
        <path id="Fill_16" data-name="Fill 16" d="M7.5,0A7.5,7.5,0,1,1,0,7.5,7.5,7.5,0,0,1,7.5,0" transform="translate(14 51)" fill="#7fd9b2"/>
        <path id="Fill_18" data-name="Fill 18" d="M5.5,0A5.5,5.5,0,1,1,0,5.5,5.5,5.5,0,0,1,5.5,0" transform="translate(38 22)" fill="#7fd9b2"/>
        <path id="Fill_26" data-name="Fill 26" d="M16.575,22,0,7.63,21,0Z" transform="translate(49 46)" fill="#f16e72"/>
        <path id="Fill_36" data-name="Fill 36" d="M11.917,4.847a.747.747,0,0,0-1.494,0l.032,2.534A15.445,15.445,0,0,0,.929.025a.76.76,0,0,0-.4,1.466A13.961,13.961,0,0,1,9.11,8.028,7.688,7.688,0,0,0,7.931,7.48c-.909-.329-1.3,1.139-.4,1.466a5.724,5.724,0,0,1,3.074,2.692.745.745,0,0,0,1.035.248A.769.769,0,0,0,12,11.253Z" transform="translate(0 24)" fill="#2c2b46"/>
        <path id="Fill_38" data-name="Fill 38" d="M6.442,8.414l-.4,1.593A32.306,32.306,0,0,0,1.475.327.869.869,0,0,0,.376.105.646.646,0,0,0,.1,1.027,31.2,31.2,0,0,1,4.347,9.875,11.864,11.864,0,0,0,1.466,8.707.813.813,0,0,0,.5,9.221a.688.688,0,0,0,.538.824,9.537,9.537,0,0,1,3.873,2.024c.026.125.069.246.1.37a.654.654,0,0,0,.747.5.777.777,0,0,0,.124-.024.867.867,0,0,0,1.088-.276.63.63,0,0,0,.064-.128q.473-1.863.946-3.726c.22-.873-1.317-1.243-1.536-.37" transform="translate(45 69)" fill="#2c2b46"/>
        <path id="Fill_40" data-name="Fill 40" d="M9.984,7.167c.19-.955-1.339-1.363-1.531-.4a14.851,14.851,0,0,0-.237,1.885A22.1,22.1,0,0,0,1.14.149C.325-.442-.471.877.337,1.46A20.176,20.176,0,0,1,6.873,9.5a6.165,6.165,0,0,0-2.347-.364.759.759,0,1,0,0,1.518,4.57,4.57,0,0,1,3.2,1.1c.032.1.072.2.1.3a.708.708,0,0,0,.611.513c.02.03.05.05.071.081a.819.819,0,0,0,1.1.238.746.746,0,0,0,.35-.823,12.8,12.8,0,0,1,.023-4.892" transform="translate(25)" fill="#2c2b46"/>
        <path id="Fill_50" data-name="Fill 50" d="M1.5,0A1.5,1.5,0,1,1,0,1.5,1.5,1.5,0,0,1,1.5,0" transform="translate(56 90)" fill="#2c2b46"/>
        <path id="Fill_62" data-name="Fill 62" d="M1.5,0A1.5,1.5,0,1,1,0,1.5,1.5,1.5,0,0,1,1.5,0" transform="translate(39 46)" fill="#2c2b46"/>
      </g>
      <g id="_02" data-name="02" transform="matrix(-1, -0.017, 0.017, -1, 345.183, 86.604)" opacity="0.2">
        <path id="Fill_16-2" data-name="Fill 16" d="M7.5,0A7.5,7.5,0,1,1,0,7.5,7.5,7.5,0,0,1,7.5,0" transform="translate(14 51)" fill="#7fd9b2"/>
        <path id="Fill_18-2" data-name="Fill 18" d="M5.5,0A5.5,5.5,0,1,1,0,5.5,5.5,5.5,0,0,1,5.5,0" transform="translate(38 22)" fill="#7fd9b2"/>
        <path id="Fill_26-2" data-name="Fill 26" d="M16.575,22,0,7.63,21,0Z" transform="translate(49 46)" fill="#f16e72"/>
        <path id="Fill_36-2" data-name="Fill 36" d="M11.917,4.847a.747.747,0,0,0-1.494,0l.032,2.534A15.445,15.445,0,0,0,.929.025a.76.76,0,0,0-.4,1.466A13.961,13.961,0,0,1,9.11,8.028,7.688,7.688,0,0,0,7.931,7.48c-.909-.329-1.3,1.139-.4,1.466a5.724,5.724,0,0,1,3.074,2.692.745.745,0,0,0,1.035.248A.769.769,0,0,0,12,11.253Z" transform="translate(0 24)" fill="#2c2b46"/>
        <path id="Fill_38-2" data-name="Fill 38" d="M6.442,8.414l-.4,1.593A32.306,32.306,0,0,0,1.475.327.869.869,0,0,0,.376.105.646.646,0,0,0,.1,1.027,31.2,31.2,0,0,1,4.347,9.875,11.864,11.864,0,0,0,1.466,8.707.813.813,0,0,0,.5,9.221a.688.688,0,0,0,.538.824,9.537,9.537,0,0,1,3.873,2.024c.026.125.069.246.1.37a.654.654,0,0,0,.747.5.777.777,0,0,0,.124-.024.867.867,0,0,0,1.088-.276.63.63,0,0,0,.064-.128q.473-1.863.946-3.726c.22-.873-1.317-1.243-1.536-.37" transform="translate(45 69)" fill="#2c2b46"/>
        <path id="Fill_40-2" data-name="Fill 40" d="M9.984,7.167c.19-.955-1.339-1.363-1.531-.4a14.851,14.851,0,0,0-.237,1.885A22.1,22.1,0,0,0,1.14.149C.325-.442-.471.877.337,1.46A20.176,20.176,0,0,1,6.873,9.5a6.165,6.165,0,0,0-2.347-.364.759.759,0,1,0,0,1.518,4.57,4.57,0,0,1,3.2,1.1c.032.1.072.2.1.3a.708.708,0,0,0,.611.513c.02.03.05.05.071.081a.819.819,0,0,0,1.1.238.746.746,0,0,0,.35-.823,12.8,12.8,0,0,1,.023-4.892" transform="translate(25)" fill="#2c2b46"/>
        <path id="Fill_50-2" data-name="Fill 50" d="M1.5,0A1.5,1.5,0,1,1,0,1.5,1.5,1.5,0,0,1,1.5,0" transform="translate(56 90)" fill="#2c2b46"/>
        <path id="Fill_62-2" data-name="Fill 62" d="M1.5,0A1.5,1.5,0,1,1,0,1.5,1.5,1.5,0,0,1,1.5,0" transform="translate(39 46)" fill="#2c2b46"/>
      </g>
      <g id="_01-2" data-name="01" transform="translate(276.791 102.332)">
        <path id="Path" d="M32.161,37.789S39.615,16.423,43.408,5.5c1.512-4.353-4.227-7.518-7.184-3.963L2.413,42.186a10.389,10.389,0,0,0,8.132,17h14.1S17.186,80.574,13.391,91.5c-1.511,4.353,4.228,7.518,7.185,3.962L54.4,54.791a10.389,10.389,0,0,0-8.132-17Z" transform="translate(13.5 0) rotate(8)" opacity="0.12" fill="url(#linear-gradient)"/>
      </g>
    </g>
  </g>
  <g id="messenger" transform="translate(141 25)">
    <path id="Path-2" data-name="Path" d="M30.1,0H19.9A19.9,19.9,0,0,0,0,19.9H0A19.9,19.9,0,0,0,19.9,39.8H30.1a20.012,20.012,0,0,0,3.392-.294L39.5,42.487a2.094,2.094,0,0,0,3.01-2.131l-.551-4.481A19.9,19.9,0,0,0,30.1,0Z" transform="translate(0 12.456)" fill="url(#linear-gradient-2)"/>
    <path id="Path-3" data-name="Path" d="M0,0,8.7,8.7,11.742,0Z" transform="translate(13.258 25.918)" opacity="0.7" fill="url(#linear-gradient-3)"/>
    <path id="Path-4" data-name="Path" d="M14.747,17.538S18.165,7.622,19.9,2.551A1.917,1.917,0,0,0,16.61.712L1.107,19.579a4.826,4.826,0,0,0,3.729,7.891H11.3s-3.421,9.925-5.161,15a1.917,1.917,0,0,0,3.294,1.839L24.945,25.428a4.826,4.826,0,0,0-3.729-7.89Z" transform="translate(11.974)" fill="url(#linear-gradient-4)"/>
  </g>
</svg>
