<svg id="Menu" xmlns="http://www.w3.org/2000/svg" width="17" height="17" viewBox="0 0 17 17">
  <path id="_2" data-name="2" d="M12.5,17A2.5,2.5,0,0,1,10,14.5v-2A2.5,2.5,0,0,1,12.5,10h2A2.5,2.5,0,0,1,17,12.5v2A2.5,2.5,0,0,1,14.5,17Zm-10,0A2.5,2.5,0,0,1,0,14.5v-2A2.5,2.5,0,0,1,2.5,10h2A2.5,2.5,0,0,1,7,12.5v2A2.5,2.5,0,0,1,4.5,17Zm10-10A2.5,2.5,0,0,1,10,4.5v-2A2.5,2.5,0,0,1,12.5,0h2A2.5,2.5,0,0,1,17,2.5v2A2.5,2.5,0,0,1,14.5,7ZM2.5,7A2.5,2.5,0,0,1,0,4.5v-2A2.5,2.5,0,0,1,2.5,0h2A2.5,2.5,0,0,1,7,2.5v2A2.5,2.5,0,0,1,4.5,7Z" fill="#fcafb7"/>
</svg>
