<svg xmlns="http://www.w3.org/2000/svg" width="18.182" height="18.494" viewBox="0 0 18.182 18.494">
  <g id="_03" data-name="03" transform="translate(0.001 0)">
    <path id="Settings" d="M10.77,18.494H7.292a1.249,1.249,0,0,1-1.2-1.018.849.849,0,0,1-.013-.086l-.16-1.746a7.968,7.968,0,0,1-.851-.493l-1.57.717a1.146,1.146,0,0,1-.922.087,1.262,1.262,0,0,1-.662-.553l-1.742-3a1.236,1.236,0,0,1,.336-1.628l.033-.023,1.486-1.01A3.194,3.194,0,0,1,2,9.25a5,5,0,0,1,.026-.507L.6,7.726.587,7.713a1.24,1.24,0,0,1-.33-1.628l1.723-2.96A1.245,1.245,0,0,1,3.518,2.6l.039.016,1.581.726A7.313,7.313,0,0,1,6,2.854l.157-1.726A1.226,1.226,0,0,1,7.37,0h3.475a1.248,1.248,0,0,1,1.2,1.018c.006.033.01.061.013.087l.158,1.747a7.825,7.825,0,0,1,.853.492l1.561-.716a1.176,1.176,0,0,1,1.594.468l1.781,2.987a1.238,1.238,0,0,1-.331,1.628l-.017.013L16.235,8.742a4.946,4.946,0,0,1,.027.507,5.135,5.135,0,0,1-.027.525l1.326,1.01a1.239,1.239,0,0,1,.326,1.629l-1.723,2.964a1.252,1.252,0,0,1-1.074.613,1.239,1.239,0,0,1-.465-.09l-.039-.015L13,15.152a7.276,7.276,0,0,1-.857.495l-.158,1.72A1.225,1.225,0,0,1,10.77,18.494ZM9.09,5.751a3.5,3.5,0,0,0-3.5,3.5,3.461,3.461,0,0,0,3.424,3.5H9.09a3.5,3.5,0,0,0,0-6.995Z" fill="#e0dfe8"/>
  </g>
</svg>
