<svg id="Illustration_Delivery" data-name="Illustration/Delivery" xmlns="http://www.w3.org/2000/svg" width="219.2" height="213.341" viewBox="0 0 219.2 213.341">
  <path id="Blob" d="M109.7-474.636c64.513,10.837,109.5,47.656,109.5,106.443,0,70.462-55.891-2.75-94.43,38.332S4.123-287.615.2-368.193C-3.481-443.624,45.184-485.472,109.7-474.636Z" transform="translate(0 506.649)" fill="#fff1ef"/>
  <path id="Path" d="M61.35,22.074,78.416,0l.392.31a29.747,29.747,0,0,0,6,3.917l.437.185c7.1,2.984,11.974,4,11.19,4.7l-.971.872q-9.407,8.491-25.76,24.7A9.355,9.355,0,0,1,64.022,37.6l-2.248.268C39.707,40.476,25.549,40.7,20.361,39.553c-1.083-.24-4.418.386-6.936,2.916C9.648,46.262,5.861,57.865,1.02,55.646-3.006,53.8,5.938,32.559,9.613,25.483c.745-1.435,1.55-.355,1.681-.544q1.253-1.806,8.463,6.378l-.13.709q.936-1.086,2.219-2.31l2.271-.272q12.035-1.461,18.3-2.672l.44-.086Q49.636,25.343,61.35,22.074Z" transform="translate(15.37 114.352)" fill="#fff"/>
  <path id="Fill_37" data-name="Fill 37" d="M4.166,0l6.345,4.781a7.133,7.133,0,0,1,2.546,3.662l1.2,4.026a2.5,2.5,0,0,1-1.122,3.28L10.9,17.412a2.5,2.5,0,0,1-3.577-1.64L6.058,11.286A9.334,9.334,0,0,1,0,3.3L4.166,0" transform="translate(178.825 113.558)" fill="#fff"/>
  <path id="Path-2" data-name="Path" d="M61.426.011c4.336.176,6.515,6.118,7.932,9.055.483,1-2.913,30.569-4.023,38.135-1.976,13.475-7.948,17.747-11.7,18.664,0,0,.225,15.32-1.346,19.132C48.814,93.44,4.8,87.773.5,73.663c-2.941-9.646,7.988-10.771,12.089-16.587C20.1,46.417,20.492,36.5,28.59,29.4c3.069-3.363,6.631-6.738,9.7-10.8l1.25-1.645C47.36,6.719,53.312-.075,61.019,0Z" transform="translate(90.982 35.019)" fill="#fff"/>
  <path id="Combined_Shape" data-name="Combined Shape" d="M39.5,56.09c-1.9-.57-4.194-1.139-5.592-.449-.771.38-1.819-.2-2.7-.757l-.492-.312A10.544,10.544,0,0,0,22.84,53.34c-1.307.544-3.476-.9-5.568-1.165a6.435,6.435,0,0,0-1.991.008,3.943,3.943,0,0,1-1.729-.035,13.567,13.567,0,0,1-2.913-1.274c-2.365-1.136-6.557-1-8.763-.209l-.119.041c-2.358.78-2.339-.075.033-.964l.18-.066.142-.049c2.52-.839,7.188-.748,9.631.819.934.6,2.164,1.406,3.037.975l.063-.029a7.723,7.723,0,0,1,2.442-.214l.08.007c1.467.163,1.786.3,2.134.55l.25.189.143.055q.8.31,1.687.733a3.512,3.512,0,0,0,.863-.206l.142-.049a10.428,10.428,0,0,1,8.376,1.22c.934.6,2.164,1.406,3.037.975q2.275-1.121,8.2,1.991l.38.2a.808.808,0,0,1-.145.012A15.963,15.963,0,0,1,39.5,56.09Zm1.511-5.713-.1-.072c-1.9-1.367-5.894-2.655-8.481-2.215a18.009,18.009,0,0,1-3.151.421c-1.6-.1-1.5-.681-3.583-1a12.561,12.561,0,0,0-2.567-.03c-1.276.073-2.44.146-3.106-.385a10.546,10.546,0,0,0-7.91-.987l-.559.165c-1,.291-2.164.562-2.8-.016-1.3-1.177-4.11-1.138-6.214-1.1a7.839,7.839,0,0,1-2.454-.135q6.914-1.5,8.851.257c.721.655,2.125.219,3.189-.1A10.426,10.426,0,0,1,20.5,46.32l.123.086a3.522,3.522,0,0,0,.772.436q.974-.161,1.824-.239l.152-.013c.6-.229.717-.356,2.495-.053a7.406,7.406,0,0,1,2.42.939c.721.655,2.125.219,3.189-.1,2.78-.833,7.292.366,9.484,1.867l.123.086c1.428,1.026,1.855,1.767,1.4,1.767A3.512,3.512,0,0,1,41.006,50.377Zm2.013-6.026c-2.054-.555-4.24-1.11-5.409-.749l-.152.049c-1.688.566-3.117-1.092-4.829-1.618a9.315,9.315,0,0,0-4.21.116c-1.767.311-3.477.622-4.686-.247a10.37,10.37,0,0,0-8.34-1.272l-.559.165c-1,.291-2.164.563-2.8-.015-1.3-1.178-4.11-1.138-6.214-1.1a7.839,7.839,0,0,1-2.454-.135q6.914-1.5,8.851.256c.721.655,2.125.219,3.189-.1a10.375,10.375,0,0,1,8.511,1.222c1.209.868,2.919.557,4.686.246a9.316,9.316,0,0,1,4.211-.116c1.675.515,3.079,2.113,4.72,1.652l.11-.034q2.071-.694,9.563,2.535c-.053,0-.109.006-.167.006A20.108,20.108,0,0,1,43.019,44.351Zm1.184-6.21c-1.832-.555-3.781-1.11-4.823-.749l-.135.049c-1.5.566-2.779-1.093-4.306-1.619a7.432,7.432,0,0,0-3.754.116c-1.576.311-3.1.622-4.179-.247a8.408,8.408,0,0,0-7.436-1.272l-.5.165c-.889.291-1.93.563-2.5-.015-1.156-1.178-3.665-1.138-5.541-1.1a6.252,6.252,0,0,1-2.188-.135q6.165-1.5,7.892.256c.643.655,1.9.219,2.843-.1a8.407,8.407,0,0,1,7.588,1.222c1.078.868,2.6.557,4.178.246a7.434,7.434,0,0,1,3.755-.116c1.493.515,2.745,2.113,4.208,1.652l.1-.034Q41.254,35.77,47.935,39q-.071.006-.149.006A16.265,16.265,0,0,1,44.2,38.141ZM43.961,30.1c-1.592-.555-3.286-1.11-4.192-.749l-.118.049c-1.308.566-2.416-1.092-3.743-1.618a5.647,5.647,0,0,0-3.263.116c-1.369.311-2.695.622-3.631-.246a6.543,6.543,0,0,0-6.464-1.272l-.433.165c-.772.291-1.677.562-2.17-.016-1-1.177-3.185-1.138-4.816-1.1a4.75,4.75,0,0,1-1.9-.135q5.359-1.5,6.86.257c.559.655,1.647.219,2.471-.1a6.537,6.537,0,0,1,6.6,1.222c.937.868,2.262.557,3.632.247a5.647,5.647,0,0,1,3.263-.116c1.3.514,2.386,2.112,3.658,1.652l.085-.034q1.6-.694,7.411,2.535-.062.006-.13.006A12.608,12.608,0,0,1,43.961,30.1ZM44.1,22.8c-1.505-.555-3.106-1.11-3.962-.749l-.111.049c-1.237.566-2.284-1.093-3.538-1.618a5.059,5.059,0,0,0-3.084.116c-1.294.311-2.547.622-3.433-.246a5.929,5.929,0,0,0-6.11-1.272l-.409.165c-.73.291-1.586.562-2.052-.016-.95-1.178-3.011-1.138-4.553-1.1a4.253,4.253,0,0,1-1.8-.135q5.065-1.5,6.484.257c.528.655,1.557.219,2.336-.1a5.922,5.922,0,0,1,6.234,1.222c.885.868,2.139.557,3.433.247a5.059,5.059,0,0,1,3.084-.116c1.227.515,2.256,2.113,3.457,1.652l.081-.034q1.517-.694,7.006,2.535-.058.006-.123.006A11.407,11.407,0,0,1,44.1,22.8Zm2.856-8.453c-1.257.518-2.24-1.179-3.473-1.753a5.068,5.068,0,0,0-3.092,0c-1.3.261-2.565.521-3.415-.379a5.929,5.929,0,0,0-6.056-1.505l-.415.149c-.74.262-1.606.5-2.049-.094a5.187,5.187,0,0,0-6.3-1.476l.27-1.019.124-.057A5.2,5.2,0,0,1,28.63,9.791c.5.675,1.547.278,2.338-.01a5.922,5.922,0,0,1,6.183,1.461c.85.9,2.112.639,3.415.379a5.067,5.067,0,0,1,3.092,0c1.233.574,2.216,2.271,3.473,1.753a4.564,4.564,0,0,1,4.675.816l0,.35-.006.773A4.554,4.554,0,0,0,46.961,14.345Zm5.077-6.878a4.514,4.514,0,0,0-2.86-.223l-.405.083a2.213,2.213,0,0,1-1.206-.012c-1.3-.483-1.189-2.694-2.491-3.163a2.5,2.5,0,0,0-1.687.21,2.949,2.949,0,0,1-1.523.263c-1.25-.241-1.754-1.994-3.005-2.229a2.845,2.845,0,0,0-1.65.374,3.13,3.13,0,0,1-1.537.393c-1.146-.112-1.766-1.385-2.74-2-1.312-.828-3.022-.347-4.489.157a3.96,3.96,0,0,1,6.3.532c.375.7,1.425.6,2.143.25l.505-.253.171-.084a2.1,2.1,0,0,1,1.571-.253c.812.273,1.126,1.264,1.818,1.77.941.689,2.242.307,3.405.212,1.139-.093,2.621.541,2.5,1.647l-.01.071c-.112.66.561,1.224,1.223,1.325a9.312,9.312,0,0,0,2-.144,4.376,4.376,0,0,1,3.561,1.5l-.151.994q-.023.263-.052.527A2.457,2.457,0,0,0,52.038,7.467Z" transform="translate(93.779 58.558)" fill="#7fd9b2"/>
  <path id="Path-3" data-name="Path" d="M10.712,0A10.681,10.681,0,0,1,21.324,11.408s-7.188,31.267-3.545,42.38c1.409,4.3,21.757,17.678,20.9,19.053L35.806,79.72C34.785,81.348,3.554,60.458,3.554,60.458.558,58.08,0,10.793,0,10.793A10.681,10.681,0,0,1,10.712,0Z" transform="translate(140.297 39.476)" fill="#fff"/>
  <path id="Path-4" data-name="Path" d="M7.82,2.814,4.15,10.372l-.073.2a2.946,2.946,0,0,1-1.623,1.3H2.432L.264,10.592A3.544,3.544,0,0,1,.142,8.125L.2,7.9S1.922,1.86,3.346.336C4.176-.553,8.97.336,7.82,2.814Z" transform="translate(175.54 110.743)" fill="#fff"/>
  <path id="Fill_23" data-name="Fill 23" d="M11.074,74.871H2.311S12.6,48.174,12.6,41.168C12.6,39,4.511,42.269,5.684,39,7.3,34.494,12.876,26.444,11.5,22.4c-1.437-4.226-6.8-5.757-11.467-7.47-.895-.328,15.424.8,19.9-2.755,5.9-4.7,1.11-15.068,2.7-11.411,1.913,4.412,14.345,15.481,11.88,27.467C32.111,39.911,11.074,74.871,11.074,74.871Z" transform="translate(120 108.379)" fill="#fff"/>
  <path id="Path_154" data-name="Path 154" d="M1.109,2.123l-.934-.31A.037.037,0,0,1,.17,1.747l.891-.484V.157A.037.037,0,0,1,1.121.13l.737.647L3.081.133a.037.037,0,0,1,.049.05L2.437,1.446,3.75,2.818a.037.037,0,0,1-.037.06L1.9,2.357,1.177,3.638a.037.037,0,0,1-.068-.018v-1.5Z" transform="translate(126.927 186.275)" fill="#7fd9b2"/>
  <g id="Run_Skate" data-name="Run Skate" transform="translate(14.248 0)">
    <path id="Combined_Shape-2" data-name="Combined Shape" d="M39.874,212.894a.706.706,0,0,1,.665-1,4.453,4.453,0,0,1,.509,0q16.958,0,33.916,0c.522,0,1.046-.047,1.024.655-.017.547-.342.8-1.1.8H60.555c-6.6,0-13.125,0-19.651,0-.111,0-.226.007-.337.007A.609.609,0,0,1,39.874,212.894Zm128.279.06c-.248-.523-.025-.955.6-1.061a3.123,3.123,0,0,1,.509,0h33.909c.914,0,1.168.254,1.01,1.035-.02.1-.106.251-.192.271a4.317,4.317,0,0,1-.955.137c-3.881.009-7.762.006-11.716.006-7.422,0-14.772,0-22.121,0l-.147,0-.144,0A.709.709,0,0,1,168.153,212.954Zm-27.119.021H82.162c-.551,0-1.113-.012-1.387-.519-.191-.353.408-.968.87-.941.378.022.758.057,1.136.057q40.133,0,80.267.01a1.062,1.062,0,0,1,.688.188c.179.2.364.677.277.737a2.24,2.24,0,0,1-1.148.449q-7.095.025-14.19.02ZM90.346,210a6.619,6.619,0,0,1-2.151-3.68,5.48,5.48,0,0,1,.636-3.972,5.99,5.99,0,0,1,1.322-1.61,5.09,5.09,0,0,1,1.8-1.006.938.938,0,0,0,.314-.209c.045-.039.092-.081.14-.116a1.591,1.591,0,0,1-.146-.094.627.627,0,0,0-.315-.145,28.606,28.606,0,0,1-10.013-2.252A64.332,64.332,0,0,1,69.5,190.852l-.074-.048a3.345,3.345,0,0,1-1.717-1.916,2.84,2.84,0,0,1,2.142-3.683,5.7,5.7,0,0,1,1.514-.2,12.286,12.286,0,0,1,3.736.771c2.961.95,5.969,1.922,8.878,2.862h0l4.95,1.6.231.075c.874.282,1.777.573,2.674.835a3.783,3.783,0,0,0,1.031.147c1.489.006,2.995.006,4.45.007s2.965,0,4.45.007c.208,0,.6.059.629.173a2.739,2.739,0,0,1,.067.758c0,.1,0,.2,0,.3-.022-.008-.044-.017-.066-.027a.331.331,0,0,0-.129-.04h-.012c-.167.015-.337.036-.5.056-.245.03-.5.061-.749.074-.869.045-1.747.086-2.6.125h0c-1.141.053-2.321.108-3.481.173-.174.01-.352.015-.53.015a18.886,18.886,0,0,1-5.371-1.05l-.017-.005c-1.489-.445-2.984-.96-4.429-1.459-.815-.281-1.656-.571-2.49-.847-1.036-.342-2.093-.682-3.115-1.01l-.018-.006c-1.187-.381-2.415-.776-3.618-1.176a9.188,9.188,0,0,1-.895-.371,5.5,5.5,0,0,0-1.431-.5,6.729,6.729,0,0,0-.983-.069,9.282,9.282,0,0,0-1.791.186c-.343.067-.743.614-.858,1.039a1.238,1.238,0,0,0,.591,1.488A68.917,68.917,0,0,0,79.272,194a60.705,60.705,0,0,0,8.994,3.108,6.484,6.484,0,0,0,1.541.152c1.177.022,2.374.037,3.532.051h.006c1.953.024,3.973.049,5.959.11,2.206.067,4.448.176,6.615.281h.014c1,.048,2.026.1,3.039.144l2.757.12h0c1.28.055,2.6.112,3.9.173.284.013.572.037.851.061.417.035.849.071,1.272.071.077,0,.152,0,.224,0a12.444,12.444,0,0,0,1.3-.134c.37-.052.752-.1,1.13-.127.038,0,.078,0,.118,0a4.543,4.543,0,0,1,.653.064,4.83,4.83,0,0,0,.627.064l.744.011h.014c.571.009,1.162.019,1.745.019.646,0,1.211-.012,1.728-.037,1-.048,2.014-.128,2.995-.2.944-.075,1.92-.152,2.881-.2l.075,0a3.381,3.381,0,0,1,.789.13,3.571,3.571,0,0,0,.765.131c.872.018,1.761.027,2.719.027.8,0,1.63-.006,2.533-.019,1.881-.026,3.555-.075,5.119-.15a8.412,8.412,0,0,0,1.016-.133,7.021,7.021,0,0,1,1.175-.136,2.882,2.882,0,0,1,.312.016c1.95.211,3.938.266,5.86.319,1.32.036,2.685.074,4.025.162.265.017.534.026.8.026a15.107,15.107,0,0,0,5.876-1.311c3.108-1.27,5.89-2.5,8.505-3.757,1.745-.84,3.434-1.867,5.069-2.859l.3-.185a4.63,4.63,0,0,0,2.2-2.793.917.917,0,0,0-.115-.8.866.866,0,0,0-.7-.321l-.177,0a14.878,14.878,0,0,0-5.332,1.319c-2.47.951-4.99,1.95-7.7,3.054-1.038.422-2.083.87-3.094,1.3l-.005,0c-.753.323-1.531.657-2.3.977a2.354,2.354,0,0,1-.872.177c-1.9.007-3.75.009-5.313.009H145.3l-3.338,0c-.636,0-1.27-.023-1.865-.045-.041,0-.1-.1-.108-.158a2.217,2.217,0,0,1,0-.243,1.585,1.585,0,0,0-.011-.338.493.493,0,0,1,.047-.411c.086-.1.252-.124.474-.124h.024c2.046.014,3.737.02,5.322.02,1.375,0,2.641,0,3.87-.015l.922-.007c2.549-.019,5.184-.038,7.77-.17a7.339,7.339,0,0,0,2.435-.739l.007,0,.192-.083a137.5,137.5,0,0,1,13.685-5.162,14.292,14.292,0,0,1,2.637-.454l.505-.056a8.912,8.912,0,0,1,1.006-.068,4.005,4.005,0,0,1,.837.079,1.369,1.369,0,0,1,.926.643,1.729,1.729,0,0,1,.113,1.394,6.87,6.87,0,0,1-1.165,2.258,7.137,7.137,0,0,1-1.91,1.67c-1.082.659-2.188,1.325-3.258,1.969l-.007,0,0,0c-.985.593-2,1.206-3.015,1.821-1.171.472-2.355.937-3.5,1.388-2.178.856-4.43,1.742-6.608,2.679a9.5,9.5,0,0,1-3.906.7c-.2,0-.4,0-.619-.01a2.113,2.113,0,0,1-.394-.063,1.939,1.939,0,0,0-.421-.063.767.767,0,0,0-.342.126c-.05.028-.1.056-.152.079.026.042.051.086.075.13a.979.979,0,0,0,.186.267,3.657,3.657,0,0,0,.721.543,5.432,5.432,0,0,1,2.458,6.074,8.911,8.911,0,0,1-1.475,3,4.943,4.943,0,0,1-2.466,1.342,7.926,7.926,0,0,1-1.989.263,6.756,6.756,0,0,1-2.311-.4,5.223,5.223,0,0,1-2.791-2.41,5.8,5.8,0,0,1-.858-3.859,7.488,7.488,0,0,1,1.615-3.463,2.7,2.7,0,0,1,.945-.657,5.478,5.478,0,0,0,.588-.329,1.531,1.531,0,0,0,.328-.346c.045-.058.091-.118.139-.173-.08-.02-.161-.044-.24-.067a2.35,2.35,0,0,0-.551-.115H149.8a1.477,1.477,0,0,0-.356.061,1.481,1.481,0,0,1-.359.061l-4.175,0h-.048c-5.431,0-11.048.007-16.571.007-5.349,0-10.073,0-14.444-.01-2.471,0-4.983-.041-7.412-.078h-.006c-1.431-.021-2.911-.043-4.365-.059-.524-.005-1.082-.008-1.756-.008l-1.469,0h-.013l-1.456,0h-.633c-.224,0-.4,0-.559.009a.374.374,0,0,0-.18.085c-.026.018-.055.038-.082.054l.068.049.012.009c.055.04.111.081.17.117.245.153.506.3.759.433a6.918,6.918,0,0,1,1.54,1.028,5.663,5.663,0,0,1,1.532,2.722,6.266,6.266,0,0,1-.034,3.088,5.71,5.71,0,0,1-1.352,2.459,5.317,5.317,0,0,1-2.575,1.5,8.76,8.76,0,0,1-2.182.3A5.437,5.437,0,0,1,90.346,210Zm3.682-9.1c-2.092,0-3.625,1.389-4.1,3.715,0,.132,0,.267,0,.4,0,.283-.01.576.009.862a4.213,4.213,0,0,0,4.239,3.644,3.856,3.856,0,0,0,1.067-.149,3.958,3.958,0,0,0,3.059-3.321,4.113,4.113,0,0,0-3.548-5.1,5.053,5.053,0,0,0-.72-.053h0Zm59.114.013a5.448,5.448,0,0,0-2.7.826,4.261,4.261,0,0,0-1.839,3.8,4.607,4.607,0,0,0,1.714,3.12,3.6,3.6,0,0,0,2.434.858,6.937,6.937,0,0,0,1.456-.174,3.905,3.905,0,0,0,2.881-2.65,4.325,4.325,0,0,0-.62-4.113,4.45,4.45,0,0,0-3.328-1.666h0Zm-.893,5.621a1.819,1.819,0,0,1-.531-1.977,1.431,1.431,0,0,1,2.436-.626c.549,1.246.512,1.755-.142,2.433a1.4,1.4,0,0,1-1,.4A1.291,1.291,0,0,1,152.249,206.532Zm-58.432-.17c-1.409-.249-1.6-1.181-1.215-2.06,1.043-1.023,1.893-1.067,2.746-.277a1.427,1.427,0,0,1,.1,1.793,1.561,1.561,0,0,1-1.22.583A2.347,2.347,0,0,1,93.817,206.362Zm11.056-11.286c-.464,0-.5-.142-.536-.554s-.112-.848-.186-1.261a9.461,9.461,0,0,1-.206-1.846,13.129,13.129,0,0,1,2.907-7.909,1.655,1.655,0,0,1,.551-.388,1.317,1.317,0,0,0,.57-.435,17.476,17.476,0,0,0,1.326-2.938,43.792,43.792,0,0,0,1.463-4.94c.163-.769.4-1.528.636-2.262a19.7,19.7,0,0,0,.744-2.835,12.978,12.978,0,0,1,1.019-3.012c.13-.3.265-.614.388-.92.422-1.044.865-2.1,1.294-3.122v0c.666-1.587,1.355-3.229,1.981-4.866.446-1.166.822-2.381,1.185-3.556.207-.67.422-1.362.647-2.04.459-1.379.954-2.845,1.507-4.27.062-.159.076-.242.05-.284s-.085-.044-.168-.051c-.03,0-.067-.005-.107-.011a17.8,17.8,0,0,0-2.351-.171,9.934,9.934,0,0,0-4.37.917,1.173,1.173,0,0,1-.5.135.772.772,0,0,1-.616-.348c-.323-.4-.141-.706.129-1.058a22.345,22.345,0,0,0,3.521-7.3c.085-.279.176-.568.256-.824a16.567,16.567,0,0,0,1.024-5.066,5.507,5.507,0,0,0-1.256-3.643c-.2-.245-.389-.505-.57-.757a4.886,4.886,0,0,0-2.035-1.909c-.478-.2-.958-.418-1.422-.63h0c-.481-.219-.978-.446-1.474-.652-.386-.16-.782-.325-1.131-.471-1.465-.613-2.979-1.246-4.5-1.785a29.408,29.408,0,0,0-2.832-.795c-.426-.1-.868-.212-1.3-.328-.083-.022-.167-.049-.248-.075s-.137-.044-.206-.063a3.411,3.411,0,0,0-.932-.15,1.835,1.835,0,0,0-1.573.865,6.156,6.156,0,0,1-1.115,1.108l-.007.006-.246.209c-1.505,1.484-2.932,2.949-4.611,4.692-.378.393-.758.8-1.125,1.186l0,0c-.7.747-1.429,1.518-2.173,2.246-1.265,1.237-2.743,2.666-4.266,3.973-1.855,1.59-3.746,3.119-5.619,4.544-2.279,1.734-4.626,3.4-6.621,4.8l-.354.251a9.193,9.193,0,0,1-3.737,1.863,4.108,4.108,0,0,0-1.2.491,5.421,5.421,0,0,1-.958.437c-2.51.761-4.76,1.4-6.878,1.947-1.409.365-2.84.624-4.3.879-.939.164-6.049.975-9.46,1.47-2.966.43-11.46.464-13.992.464-1.443,0-2.775-.01-3.565-.026-1.678-.035-3.344-.094-4.753-.148l-.065,0h-.016a2.541,2.541,0,0,1-.947-.151,2.913,2.913,0,0,0-1.222-.278,5.35,5.35,0,0,0-2.758,1.119l-.087.055a11.987,11.987,0,0,0-3.55,4.127c-.515.835-1.069,1.666-1.605,2.468-.577.863-1.173,1.756-1.722,2.658-.727,1.2-1.386,2.459-2.022,3.681l-.02.038-.328.628a5.542,5.542,0,0,1-1.62,1.947,5.661,5.661,0,0,1-2.359.986,3.144,3.144,0,0,1-.586.055,5.775,5.775,0,0,1-1.895-.423c-.285-.1-.579-.2-.875-.278a.963.963,0,0,1-.512-.518,2.812,2.812,0,0,1-.327-1.817c.6-1.808,1.227-3.675,1.778-5.323,1.251-3.741,2.544-7.61,3.807-11.426.872-2.632,1.737-5.316,2.574-7.911l.006-.018.051-.157.673-2.086c.115-.357.226-.719.333-1.069.178-.584.362-1.187.57-1.772a.76.76,0,0,1,.54-.435c.1,0,.2-.006.3-.006a9.614,9.614,0,0,1,3.668.805,11.329,11.329,0,0,1,3.166,1.952,12.4,12.4,0,0,1,2.389,2.865,1.46,1.46,0,0,0,1.318.693,2.582,2.582,0,0,0,.446-.041c.379-.067.767-.118,1.143-.168a17.4,17.4,0,0,0,1.735-.289,17.112,17.112,0,0,1,3.831-.321c.812-.006,1.65-.013,2.471-.1.564-.058,1.141-.091,1.7-.124.745-.043,1.514-.088,2.262-.191,1.362-.187,2.74-.427,4.073-.66.633-.11,1.287-.224,1.931-.331.523-.087,1.052-.17,1.565-.25.989-.155,2.012-.315,3.012-.507,1.281-.246,2.574-.551,3.823-.846l.026-.006.423-.1c1.327-.312,2.672-.639,3.973-.956l.037-.009,1.693-.411.176-.044.012,0,.077-.02-.087-.046h0c-.066-.034-.134-.069-.2-.109-.195-.12-.4-.235-.6-.347a7.918,7.918,0,0,1-1.306-.857,1.366,1.366,0,0,1-.482-1.318,1.418,1.418,0,0,1,1.019-1.042,12.105,12.105,0,0,1,2.6-.572,12.135,12.135,0,0,0,3.335-.864c.425-.155.865-.315,1.305-.453a3.59,3.59,0,0,0,2.183-1.871,6.182,6.182,0,0,1,.988-1.216,9.107,9.107,0,0,0,.743-.837c1.115-1.49,2.242-3.062,3.351-4.672a9.16,9.16,0,0,0,.6-1.069c.14-.277.284-.562.447-.83a14.55,14.55,0,0,1,1.241-1.82l.066-.079c1.063-1.26,2.162-2.563,3.335-3.752a27.03,27.03,0,0,1,2.057-1.819c.327-.27.666-.55.994-.833a3.892,3.892,0,0,0,.463-.466c.249-.3.325-.54-.023-.87l-.281-.265,0,0a9.158,9.158,0,0,1-2.4-3l-.155-.367-.008-.019a18.277,18.277,0,0,1-1.062-2.971,7.217,7.217,0,0,1-.161-2.071,9.447,9.447,0,0,1,.382-2.078,7.865,7.865,0,0,1,3.391-4.45c1-.648,2.07-1.225,3.1-1.782.768-.414,1.562-.842,2.323-1.3a8.308,8.308,0,0,0,1.579-1.358l.141-.144a35.464,35.464,0,0,0,5.276-7.624c.159-.28.325-.57.489-.857,1.494-2.607,2.836-5.311,4.133-7.926.381-.769.714-1.577,1.035-2.36v0c.284-.691.577-1.406.9-2.09a16.388,16.388,0,0,1,.9-1.567c.23-.37.468-.753.679-1.142.226-.417.436-.853.639-1.275A19.691,19.691,0,0,1,99.567,66.6a5.824,5.824,0,0,1,1.059-1.15c.162-.147.329-.3.484-.454.192-.191.39-.382.582-.566l.006-.006c.2-.195.411-.4.614-.6.41-.41.743-.755,1.048-1.087.657-.713,1.322-1.428,1.966-2.119,1.6-1.72,3.255-3.5,4.829-5.295,2.009-2.294,3.894-4.672,5.312-6.487.685-.877,1.312-1.821,1.919-2.735l0,0c.269-.405.547-.824.826-1.231a.733.733,0,0,0,.042-.074.465.465,0,0,1,.063-.1c.446-.491.895-1,1.329-1.483,1.017-1.143,2.069-2.324,3.163-3.427a24.791,24.791,0,0,1,5.506-4.124c.308-.172.61-.371.9-.563a9.224,9.224,0,0,1,1.441-.83l.352-.15.009,0A8.339,8.339,0,0,1,134,33.239c.251-.005.549-.011.854-.011a7.671,7.671,0,0,1,5.219,1.482c.143.12.236.174.3.174.09,0,.133-.094.153-.336.03-.361.092-.738.153-1.1a5.3,5.3,0,0,0,.037-2.466,6.407,6.407,0,0,1-.255-1.334,5.451,5.451,0,0,0-.316-1.477c-.665-1.607-1.268-3.27-1.852-4.879l-.265-.731a7.4,7.4,0,0,1-.405-1.582c-.049-.384-.066-.778-.082-1.159s-.034-.8-.086-1.188a7.65,7.65,0,0,1,.785-3.86c.087-.221.177-.45.263-.678a13.756,13.756,0,0,1,2.136-3.7,28.712,28.712,0,0,1,2.929-3.1,8.52,8.52,0,0,1,3.37-1.794,30.457,30.457,0,0,1,3.829-.84c.892-.154,7.118-.3,10.462-.379,1.064-.025,1.831-.043,1.991-.051a2.721,2.721,0,0,0,1.535-.663A4.235,4.235,0,0,0,166.134.82l0-.019c.021-.1.043-.19.065-.284l.014-.063,0-.008c.057-.258.1-.445.465-.445h.04c1.356.046,2.052.94,2.7,1.933A9.1,9.1,0,0,1,170.982,5.6a5.186,5.186,0,0,1-1.054,4.528,12.21,12.21,0,0,1-3.31,2.651.864.864,0,0,0-.179.8,15.175,15.175,0,0,1,.921,6.769,13.955,13.955,0,0,1-.2,1.671,14.79,14.79,0,0,0-.2,1.583A9.747,9.747,0,0,0,167.8,28a2.328,2.328,0,0,1-.57,2.619,2.775,2.775,0,0,1-.413.344,1.77,1.77,0,0,0-.527.5A3.787,3.787,0,0,0,165.8,33a6.644,6.644,0,0,0,.054,1.22c.027.251.054.51.063.763a4.807,4.807,0,0,1-.839,2.648,5.83,5.83,0,0,1-3.843,2.984,10.071,10.071,0,0,1-2.054.223,7.479,7.479,0,0,1-2.419-.383A35.534,35.534,0,0,1,152,38.4a4.072,4.072,0,0,1-1.126-1.027c-.152-.177-.309-.359-.472-.523-.135-.136-.222-.2-.323-.2s-.206.069-.359.231a14.236,14.236,0,0,0-2.643,4.1,2.822,2.822,0,0,0,.125,2.258l.03.086.073.21a8.84,8.84,0,0,1,.679,3.134c-.013.549,0,1.109.008,1.65v0a23.822,23.822,0,0,1-.045,2.607,21.313,21.313,0,0,1-.5,2.745c-.082.36-.167.733-.242,1.1-.079.386-.158.779-.234,1.158l0,.011c-.233,1.163-.474,2.364-.757,3.534-.131.542-.314,1.081-.492,1.6-.145.427-.295.867-.415,1.307-.141.516-.285,1.034-.424,1.536v0c-.541,1.948-1.1,3.963-1.546,5.968a36.307,36.307,0,0,0-.731,5.245c-.08,1.1-.068,2.223-.056,3.31.007.6.013,1.224,0,1.835-.007.459-.031.926-.055,1.378v.006c-.03.577-.061,1.174-.056,1.761q0,.35,0,.7c.01,1.525.021,3.1.157,4.643a34.742,34.742,0,0,0,.764,4.573,6.9,6.9,0,0,0,1.968,3.092,18.927,18.927,0,0,0,1.412,1.311c.334.29.68.589,1,.9a8.768,8.768,0,0,1,.622.687,6.952,6.952,0,0,0,.786.836c.946.8,1.923,1.6,2.869,2.375l0,0,.005,0c.714.584,1.453,1.187,2.173,1.789.647.541,1.3,1.1,1.922,1.646l0,0,0,0c.634.55,1.29,1.118,1.945,1.665.807.674,1.764,1.458,2.753,2.164.447.319.922.614,1.382.9.477.3.969.6,1.429.932a1.03,1.03,0,0,0,.612.219,1.769,1.769,0,0,0,.8-.268,3.163,3.163,0,0,1,.445-.2,3.5,3.5,0,0,1,1.1-.208,1.6,1.6,0,0,1,.928.265,1.828,1.828,0,0,1,.635.866,3.628,3.628,0,0,0,.375.663,2.184,2.184,0,0,1,.5,1.334c-.007.172.359.374.682.553.077.042.149.083.214.121.92.543,1.827,1.054,2.832,1.618.2.114.416.219.621.321a6.9,6.9,0,0,1,1.152.665,11.359,11.359,0,0,1,1,.905,11.344,11.344,0,0,0,1,.907,6.134,6.134,0,0,1,1.567,2.108c.15.278.3.565.471.835a7.234,7.234,0,0,1,.882,2.543,20.457,20.457,0,0,1,.286,3.6,3.141,3.141,0,0,1-.586,1.493.721.721,0,0,1-.593.4.843.843,0,0,1-.594-.319.469.469,0,0,0-.136-.089c-.023-.012-.046-.023-.068-.036,0,.03-.007.059-.01.088-.006.059-.013.126-.022.191-.028.2-.05.405-.072.6v.006a8.444,8.444,0,0,1-.25,1.477c-.092.31-.5.739-.787.753h-.016c-.213,0-.439-.2-.658-.394-.089-.079-.182-.161-.271-.227a1.6,1.6,0,0,1-.234-.23l-.024-.027a2.038,2.038,0,0,1-.126-.162l-.056-.076-.04.085,0,.006c-.028.061-.058.124-.089.186-.041.081-.077.168-.112.253a1.5,1.5,0,0,1-.3.519.945.945,0,0,1-.651.285.885.885,0,0,1-.825-.69c-.114-.37-.211-.754-.3-1.124v0a16.081,16.081,0,0,0-.448-1.556c-.075-.208-.139-.424-.2-.633v0a3.92,3.92,0,0,0-.878-1.771,4.623,4.623,0,0,1-.82-1.416v0c-.086-.2-.175-.4-.27-.594a4.968,4.968,0,0,0-1.116-1.469,7.827,7.827,0,0,0-1.509-1.059,5.337,5.337,0,0,1-.857-.57.907.907,0,0,0-.576-.259c-.255,0-.494.17-.75.535a1.929,1.929,0,0,1-1.564.878,1.84,1.84,0,0,1-.869-.225A4.929,4.929,0,0,1,160.2,120c-.064-.281-.443-.529-.843-.754-.988-.557-2-1.111-2.969-1.647h0c-1.616-.889-3.287-1.808-4.9-2.759-2.021-1.19-4.023-2.491-5.958-3.749l0,0-.577-.375c-3.1-2.016-6.244-4.08-9.279-6.076l-.143-.094-1.655-1.088c-.675-.444-1.357-.9-2.017-1.346l-.012-.008-.008-.005c-.456-.306-.928-.624-1.393-.933a4.662,4.662,0,0,0-.591-.334,1.25,1.25,0,0,0-.487-.151c-.218,0-.316.174-.349.62,0,.015,0,.029,0,.046s0,.018,0,.027l-.032,2.248c-.035,2.5-.075,5.339-.115,8.064a3.5,3.5,0,0,0,.826,2.031l0,0c.082.12.167.244.246.367,1.324,2.051,2.788,4.264,4.475,6.765.415.615.851,1.229,1.274,1.824.638.9,1.3,1.826,1.894,2.773a7.057,7.057,0,0,1,.664,1.594v0c.077.239.157.486.247.723.039.1.082.211.123.314l0,.009a6.657,6.657,0,0,1,.305.884,12.415,12.415,0,0,1,.31,3.64,19.728,19.728,0,0,1-.568,3.606l-.112.461,0,.017a40.551,40.551,0,0,1-1.253,4.433c-.423,1.152-.96,2.283-1.479,3.378-.25.527-.508,1.071-.751,1.613-.366.815-.748,1.693-1.238,2.846-.8,1.892-1.454,3.433-2.044,4.85-.244.585-.483,1.183-.715,1.762l0,.009c-.466,1.165-.949,2.369-1.488,3.523-.776,1.66-1.652,3.307-2.5,4.9l-.035.065-.338.637c-.537,1.013-1.1,2.035-1.638,3.024l0,0c-.525.958-1.068,1.949-1.592,2.936-.475.893-.945,1.808-1.4,2.693l-.006.011c-.487.947-.989,1.927-1.5,2.883-.685,1.282-1.428,2.6-2.27,4.025-.635,1.077-.493,1.578.291,2.635a5.335,5.335,0,0,0,3.348,1.758c3.469.792,7,1.565,10.42,2.312l.01,0,.126.028c.349.076.708.134,1.054.19.391.063.794.128,1.185.219a4.188,4.188,0,0,1,2.261,1.339,6.094,6.094,0,0,1,1.19,2.332,3.237,3.237,0,0,1-.475,3.308,2.266,2.266,0,0,1-1.466.625c-6.4.022-12.914.025-19.211.029h-.078c-3.957,0-8.05,0-12.075.011Zm1.383-2.339a2.1,2.1,0,0,0-.521.615c0,.008,0,.021.007.04a.81.81,0,0,0,.375.339,6.161,6.161,0,0,0,1.32.156c1.734,0,3.156,0,4.474,0,5.548,0,10.054-.022,14.181-.07l.972-.07.028,0c.717-.053,1.458-.108,2.188-.144.952-.046,1.921-.089,2.858-.13h.022c1.26-.055,2.563-.112,3.848-.18.1-.005.2-.107.293-.206a1.593,1.593,0,0,1,.133-.13c-.039-.024-.077-.05-.114-.075a1.19,1.19,0,0,0-.273-.152.409.409,0,0,0-.134-.019c-.037,0-.076,0-.114.006s-.077.006-.114.006h-29a1.333,1.333,0,0,1-.145-.012,1.386,1.386,0,0,0-.147-.012A.213.213,0,0,0,106.256,192.736Zm2.2-8.048c-.252,0-.47.219-.76.6a13.139,13.139,0,0,0-1.833,3.93l-.039.116c-.26.77-.293,1.185-.115,1.432s.591.353,1.457.353h28.152c.059,0,.121.005.182.01s.124.011.182.011a.5.5,0,0,0,.212-.038.877.877,0,0,0,.314-.393q0-.012,0-.016c-.1-.113-.206-.235-.306-.353a3.6,3.6,0,0,0-1.022-.942,12.3,12.3,0,0,0-2.556-.862c-2.944-.746-6.061-1.5-9.809-2.384l-.481-.136-.014,0c-.351-.1-.714-.2-1.075-.3l-.414-.1h0a8.9,8.9,0,0,1-1.831-.587,3.21,3.21,0,0,1-1.431-1.339c-.164-.292-.318-.434-.47-.434-.169,0-.342.177-.53.542a3,3,0,0,1-1.278,1.413,7.952,7.952,0,0,1-.995.415,6.449,6.449,0,0,1-2.154.419,4.012,4.012,0,0,1-2.631-.952c-.352-.288-.563-.4-.752-.4h0Zm13.41-36.721-.141.355-.016.04c-.34.857-.691,1.744-.993,2.632-.66,1.938-1.362,4.059-2.212,6.675a75.113,75.113,0,0,1-3.3,8.273,35.649,35.649,0,0,0-2.563,7.943c-.255,1.287-.639,2.569-1.01,3.81l0,.011c-.088.3-.18.6-.268.9-.279.951-.592,1.911-.895,2.838v0l-.006.018c-.108.331-.22.673-.328,1.01a1.554,1.554,0,0,0,.058,1.258.735.735,0,0,0,.527.352,6.389,6.389,0,0,0,.983.068c.376,0,.759-.022,1.183-.049a2.4,2.4,0,0,0,1.7-.988c.682-.979,1.369-2.035,2.162-3.324.633-1.029,1.229-2.091,1.806-3.119.527-.939,1.082-1.881,1.62-2.792a65.327,65.327,0,0,0,3.555-6.6c.587-1.322,1.277-2.622,1.944-3.881.318-.6.648-1.22.962-1.837.148-.29.3-.583.449-.866.407-.779.828-1.584,1.182-2.4.269-.618.508-1.262.739-1.884a24.1,24.1,0,0,1,1.2-2.855A29.573,29.573,0,0,0,132,149.008c.163-.492.331-1,.507-1.5a2.072,2.072,0,0,0,.062-.241v0c.008-.036.015-.073.024-.109l-.125.022a2.348,2.348,0,0,0-.269.057c-.176.052-.354.117-.526.18a4.243,4.243,0,0,1-1.094.293c-1.31.1-2.706.155-4.151.155h-.015c-.861,0-1.736-.035-2.582-.068-.543-.021-1.106-.044-1.659-.057h0A.427.427,0,0,0,121.87,147.967ZM12.9,141.064c-.1.274-.209.552-.312.822l-.006.016c-.329.864-.669,1.756-.966,2.646-.326.979-.641,1.979-.946,2.947v.005c-.322,1.02-.654,2.075-1,3.106-.285.851-.541,1.726-.787,2.573v0a38.2,38.2,0,0,1-1.568,4.624,52.952,52.952,0,0,0-2.009,5.3A36.808,36.808,0,0,0,4,168.625c-.03.195.012.541.13.6a.6.6,0,0,0,.266.054.988.988,0,0,0,.415-.092,2.729,2.729,0,0,0,.9-.632,31.314,31.314,0,0,0,2.073-2.787c.571-.914,1.147-1.83,1.7-2.716l.006-.01c1.407-2.239,2.862-4.554,4.258-6.851.786-1.292,1.561-2.39,3.094-2.725.262-.057.413-.151.461-.285.054-.15-.024-.353-.236-.621-.083-.1-.172-.211-.258-.314l0,0a3.763,3.763,0,0,1-.779-1.2,4.45,4.45,0,0,1-.091-1.538c.007-.133.014-.272.019-.405.06-1.9.7-3.052,2.078-3.727a.841.841,0,0,0,.5-.5.938.938,0,0,0-.224-.753,12.427,12.427,0,0,0-4.007-3.543,1.108,1.108,0,0,0-.572-.178A.906.906,0,0,0,12.9,141.064Zm-1.843-1.12a.73.73,0,0,0-.351.27c-.461,1.009-1,2.2-1.459,3.409-.41,1.065-.781,2.166-1.14,3.23l-.012.035-.167.5-.2.582c-.378,1.112-.769,2.259-1.111,3.4-.352,1.177-.691,2.375-1.018,3.534v0c-.24.852-.489,1.732-.741,2.6-.087.3-.174.6-.259.894l-.019.065c-.377,1.308-.768,2.659-1.216,3.97-.279.818-.58,1.645-.871,2.445l0,.005c-.407,1.119-.828,2.276-1.2,3.446.29.383.462.533.612.533s.3-.183.493-.633c.616-1.467,1.072-2.67,1.436-3.784.279-.855.529-1.736.771-2.587v0c.22-.773.447-1.573.7-2.351.39-1.224.806-2.462,1.207-3.659.374-1.112.76-2.261,1.126-3.4C8.317,150.3,9,148.115,9.657,146l0-.006.013-.044c.288-.923.586-1.878.881-2.816.08-.254.164-.518.238-.751.211-.663.43-1.348.623-2.029a.571.571,0,0,0-.087-.35,1.713,1.713,0,0,1-.072-.172A2.022,2.022,0,0,1,11.059,139.944Zm24.068,12.749c.359.015.725.04,1.078.064.563.038,1.145.078,1.715.078.229,0,.44-.006.646-.019,1.228-.076,2.473-.224,3.676-.366h0c.556-.066,1.13-.134,1.7-.194.349-.037.7-.068,1.048-.1.623-.054,1.266-.109,1.894-.2l.326-.05c1.575-.239,3.2-.486,4.779-.834,1.226-.271,2.422-.574,3.688-.9h0c.9-.23,1.84-.468,2.8-.694l.166-.048c.117-.034.237-.07.358-.1l1.454-.323.015,0c1.029-.228,2.094-.464,3.139-.7a1.747,1.747,0,0,0,.434-.191c.064-.036.131-.072.2-.1-.056-.033-.113-.065-.169-.1a3.7,3.7,0,0,1-.385-.236,2.383,2.383,0,0,1-.359-.353l0,0c-.316-.358-.642-.718-.956-1.067-.764-.845-1.555-1.719-2.265-2.631a21.54,21.54,0,0,1-1.814-2.938l-.013-.024c-.223-.408-.458-.591-.761-.591a1.033,1.033,0,0,0-.342.065,45.771,45.771,0,0,1-6.824,1.623c-1.18.217-2.4.442-3.589.713-1.974.45-11.787,2.133-12.612,2.193-.417.03-.84.073-1.25.114a22.972,22.972,0,0,1-2.3.156h-.121l-.3,0a30.283,30.283,0,0,0-5.811.593c-.637.124-1.294.2-1.929.28-.726.088-1.476.179-2.2.336a3.341,3.341,0,0,0-2.273,1.533,3.594,3.594,0,0,0-.236,2.9,1.642,1.642,0,0,0,.9.925,16.061,16.061,0,0,0,5.232.765c.918.007,1.85.05,2.751.092.345.016.7.033,1.054.047l3.921.162.14.006,2.965.123.1,0h.224Zm22.308-14.652c.175.12.355.244.535.355a5.524,5.524,0,0,1,2.253,2.13,13,13,0,0,0,1.224,1.845l0,0c.133.179.272.363.4.545.546.755,1.125,1.5,1.738,2.292l.136.176.471.439c.516.481,1.049.978,1.58,1.457a.434.434,0,0,0,.261.091.2.2,0,0,0,.082-.015c.4-.181.81-.355,1.208-.523h0a18.975,18.975,0,0,0,2.872-1.407c1.592-1.02,3.171-2.118,4.7-3.18,1.2-.834,2.439-1.7,3.676-2.514a60.971,60.971,0,0,0,7.435-6.135c.452-.415.919-.844,1.386-1.267.721-.655,1.411-1.368,2.078-2.059l.435-.45c.814-.838,1.633-1.7,2.425-2.525l1.015-1.062q.373-.39.747-.778l0,0c.889-.924,1.808-1.879,2.685-2.845.06-.066.041-.291-.008-.468-.039-.141-.091-.237-.136-.251-.5-.151-1.011-.276-1.509-.4-.631-.154-1.284-.312-1.907-.524l-.318-.108c-2.535-.863-5.156-1.755-7.678-2.775a23.233,23.233,0,0,1-6.362-3.844.06.06,0,0,0-.037-.009c-.052,0-.133.026-.144.053a8.94,8.94,0,0,1-2.612,3.156l0,0c-.23.2-.469.415-.7.627a36.27,36.27,0,0,0-3.106,3.164,23.11,23.11,0,0,0-1.657,2.343c-.188.291-.382.591-.579.884-.222.331-.46.661-.69.981a14.538,14.538,0,0,0-1.543,2.475,18.8,18.8,0,0,1-3.661,5.047c-1.4,1.5-3.32,2.059-5.18,2.6l-.525.155c-.69.205-1.412.346-2.11.481-.384.075-.781.152-1.169.239a.779.779,0,0,0-.275.155c-.04.03-.082.061-.123.087a2.334,2.334,0,0,1,.138.194c.1.145.2.3.284.3h.006c.056,0,.112-.006.168-.006A3.681,3.681,0,0,1,57.435,138.041Zm51.627-14.351c-.061.017-.123.036-.184.048l.116.094c.091.074.184.151.281.221a.446.446,0,0,0,.073.04,1.069,1.069,0,0,1,.187.109c.112.046.226.09.337.132a6.476,6.476,0,0,1,.72.31,15.223,15.223,0,0,0,1.739.746,7.8,7.8,0,0,1,3.224,1.871,8.743,8.743,0,0,0,.894.82c.2.167.4.339.6.519a4.4,4.4,0,0,1,1.071,2.187l0,.009c.031.111.062.225.094.337a11.652,11.652,0,0,1-.062,6.24l-.083.317-.018.07a27.812,27.812,0,0,1-2.9,7.779c-.094.151-.168.27-.128.345s.137.09.339.1c1.277.036,2.575.085,3.831.132h.007c1.38.052,2.806.105,4.209.143.437.012.9.017,1.472.017.378,0,.762,0,1.134,0h.043c.357,0,.763,0,1.152,0,.245,0,.464,0,.672,0h.142a10.328,10.328,0,0,0,4.448-.892l.177-.081a2.722,2.722,0,0,0,1.281-.889,19.23,19.23,0,0,0,1.341-3.307c.576-1.771,1.082-3.372,1.446-5.02a29.553,29.553,0,0,0,.583-4.428,5.892,5.892,0,0,0-.122-1.352,7.547,7.547,0,0,1-.129-1.082,7.727,7.727,0,0,0-1.368-3.712l-.118-.2a5.822,5.822,0,0,0-.556-.756c-.154-.187-.312-.38-.448-.583-1.074-1.605-2.162-3.242-3.213-4.824l-.029-.043-.024-.037c-.727-1.094-1.479-2.224-2.219-3.335a2.088,2.088,0,0,0-.261-.3l0,0c-.042-.043-.086-.087-.127-.132-.042.064-.092.127-.14.189v0a1.116,1.116,0,0,0-.248.427c-.074.355-.123.721-.17,1.074-.041.3-.083.615-.14.919a5.947,5.947,0,0,1-.918,2.327,5.167,5.167,0,0,1-1.916,1.659,20.034,20.034,0,0,1-7.262,2,27.325,27.325,0,0,1-3.137.167c-.4,0-.819-.007-1.247-.021-.877-.029-1.766-.138-2.626-.245h0c-.465-.058-.946-.117-1.42-.163l-.051,0A1.262,1.262,0,0,0,109.062,123.691Zm59.684-7.967c-.261.571-.543,1.144-.815,1.7l0,.006c-.426.867-.867,1.763-1.239,2.672l-.025.061a1.49,1.49,0,0,0-.158.652.769.769,0,0,0,.544.646,8.055,8.055,0,0,1,2.35,1.519c1.968,1.864,2.867,4.389,3.736,6.83l.068.192a15.17,15.17,0,0,1,.413,1.463c.057.231.115.469.178.7.023.084.05.168.076.25l.037.117a1.568,1.568,0,0,1,.136-.084.538.538,0,0,0,.245-.206,4.048,4.048,0,0,0,.206-2.759,13.547,13.547,0,0,1-.378-2.392l-.007-.071c-.01-.1.13-.213.265-.324a2.142,2.142,0,0,0,.175-.154c.033.043.072.086.109.127a.782.782,0,0,1,.2.289c.062.225.119.446.179.68v0c.108.418.218.851.365,1.312.049.224.1.452.143.672l.007.03c.137.649.278,1.32.453,1.97.033.123.183.218.328.308a2.117,2.117,0,0,1,.193.131,1.841,1.841,0,0,1,.129-.156.657.657,0,0,0,.206-.343c.008-.159.019-.326.029-.474a6.835,6.835,0,0,0-.039-1.821,20.946,20.946,0,0,0-1.036-3.36.426.426,0,0,1,.139-.524.379.379,0,0,0,.155-.3c.077.049.159.095.239.138a1.6,1.6,0,0,1,.5.358,1.372,1.372,0,0,1,.208.5,2.616,2.616,0,0,0,.1.317l.18.425c.285.676.58,1.374.916,2.037.06.118.242.177.418.233a2.182,2.182,0,0,1,.236.085c.03-.067.069-.135.107-.2a.94.94,0,0,0,.167-.44,18.025,18.025,0,0,0-.137-1.983c-.012-.1-.024-.216-.034-.313a4.7,4.7,0,0,0-.283-1.377,34.02,34.02,0,0,0-1.858-3.75,7.887,7.887,0,0,0-1.739-2.028,13.413,13.413,0,0,0-1.986-1.278c-.172-.1-.366-.206-.553-.314-1.164-.675-2.36-1.33-3.376-1.881l-.037-.021a.429.429,0,0,0-.2-.074C168.888,115.511,168.812,115.58,168.746,115.724Zm-3.141-3.186a9.546,9.546,0,0,0-2.873,3.364,22.712,22.712,0,0,0-.961,2.693c-.09.292-.193.622-.3.937a1.249,1.249,0,0,0,.007.589,3.223,3.223,0,0,0,2.024,2.183,1.037,1.037,0,0,0,.459.127.7.7,0,0,0,.636-.494c.153-.336.307-.68.456-1.013l0-.008c.315-.7.641-1.433,1-2.191.1-.206.209-.421.3-.61.229-.452.465-.919.662-1.394.1-.253.232-.5.355-.736a4.3,4.3,0,0,0,.624-1.913,1.3,1.3,0,0,0-.654-1.373,2.2,2.2,0,0,0-1.1-.381A1.02,1.02,0,0,0,165.605,112.537ZM135.394,34.8c-.689.089-1.383.233-2.053.373-.324.067-.658.137-.988.2a10.936,10.936,0,0,0-2.648.868,12.81,12.81,0,0,0-2.363,1.471c-.857.667-1.715,1.38-2.551,2.118s-1.667,1.484-2.409,2.277c-.7.748-1.364,1.556-2,2.337l-.428.52c-1.251,1.515-2.3,2.792-3.335,4.1-.48.6-.956,1.222-1.418,1.821l0,0c-.7.908-1.422,1.848-2.167,2.744-1.2,1.449-2.53,2.965-4.173,4.771-1.962,2.155-3.978,4.3-5.928,6.376l0,0a5.467,5.467,0,0,1-.559.494,4.488,4.488,0,0,0-.655.6,26.931,26.931,0,0,0-3.757,5.6c-.886,1.886-1.755,3.818-2.595,5.688l0,.007v0c-.755,1.68-1.535,3.417-2.327,5.115a57.521,57.521,0,0,1-4.4,7.969l-.125.185a15.115,15.115,0,0,1-3.115,3.708c-1.679,1.291-3.455,2.512-5.173,3.693-.422.29-.9.619-1.364.94a7.952,7.952,0,0,0-3.211,4,7.544,7.544,0,0,0,.639,6.05,20.6,20.6,0,0,0,5.077,5.825,20.877,20.877,0,0,0,7.407,4.114,48.738,48.738,0,0,0,10.705,2.523c.967.083,1.947.212,2.894.337,1.055.139,2.146.282,3.224.363,2.406.18,4.819.277,7.171.29h.119c1.036,0,2.09-.073,3.108-.144.672-.047,1.366-.095,2.049-.122a18.325,18.325,0,0,0,5.35-1.177,3.858,3.858,0,0,0,2.668-2.241,12.1,12.1,0,0,0,.472-2.286l.027-.206c.211-1.6.43-3.251.552-4.884.112-1.5.171-3,.232-4.578.023-.586.047-1.191.073-1.8.015-.192.027-.387.038-.576v-.012c.027-.434.054-.884.115-1.322.048-.348.118-.7.186-1.038.083-.416.169-.845.215-1.273l.013-.121a15.616,15.616,0,0,0,.133-2.755,7.509,7.509,0,0,0-.285-1.4,9.4,9.4,0,0,1-.258-1.138c-.317-2.261-.556-4.24-.732-6.051-.17-1.759-.285-3.552-.4-5.287q-.024-.37-.048-.739c-.108-1.664-.218-3.455-.289-5.284-.066-1.681-.1-3.392-.131-5.047v-.007q-.007-.364-.014-.729a.98.98,0,0,1,.071-.321,1.64,1.64,0,0,0,.061-.206c.015-.078.035-.158.053-.236a2.057,2.057,0,0,0,.085-.648,5.375,5.375,0,0,0-.126-.7,3.886,3.886,0,0,1-.134-.938c.052-2.062.147-4.153.238-6.176l.009-.188.034-.746a12.5,12.5,0,0,1,.145-1.327c.188-1.223.387-2.463.579-3.662l.023-.144q.063-.393.126-.785c.016-.1.038-.2.059-.3.01-.047.02-.093.03-.14.006.052.013.1.02.154a2.835,2.835,0,0,1,.034.335c.047,2.369.091,4.778.134,7.107v.034l.013.687q.021,1.146.043,2.292l0,.109c.034,1.795.07,3.651.1,5.5.019,1.232.035,2.482.05,3.691.027,2.194.055,4.462.108,6.693.036,1.553.132,3.186.293,4.991.108,1.213.268,2.443.423,3.631v0l0,.025c.049.374.1.761.147,1.141.067.533.142,1.075.214,1.6l0,.014v0c.127.923.259,1.878.355,2.82a4.57,4.57,0,0,0,1.529,2.935,18.356,18.356,0,0,0,1.969,1.514c.265.186.54.377.8.571.56.41,1.14.839,1.651,1.218,1.359,1.007,2.765,2.049,4.186,3.017,1.269.865,2.6,1.689,3.88,2.485h0c.62.385,1.262.783,1.889,1.181.6.381,1.208.771,1.8,1.149l.015.01h0c1.049.674,2.133,1.371,3.212,2.036l.225.138c1.943,1.2,3.952,2.434,5.975,3.569a31.807,31.807,0,0,0,3.008,1.419l.006,0c.255.11.52.223.779.337a.378.378,0,0,0,.147.025.57.57,0,0,0,.425-.155,4.93,4.93,0,0,0,.391-.932c.022-.064.043-.127.065-.189a8.8,8.8,0,0,1,1.887-3.3c.357-.367.481-.58.445-.758-.043-.215-.343-.38-.813-.578l-.163-.068a7.879,7.879,0,0,1-1.176-.569c-.671-.423-1.336-.89-1.978-1.389-.563-.437-1.137-.88-1.692-1.309l0,0c-1.878-1.45-3.819-2.949-5.676-4.486-1.88-1.557-3.648-3.244-4.978-4.54-.225-.219-.455-.439-.677-.652a16.413,16.413,0,0,1-3.61-4.357c-.119-.238-.259-.471-.394-.7a3.705,3.705,0,0,1-.74-2.2,8.255,8.255,0,0,0-.107-1.615c-.026-.195-.052-.394-.073-.59-.056-.525-.123-1.058-.188-1.574v-.006c-.134-1.061-.273-2.158-.318-3.241-.062-1.461-.048-2.949-.034-4.389V80.38c.006-.618.012-1.258.012-1.886,0-.147,0-.3-.009-.441v0a6.925,6.925,0,0,1,.016-.967c.185-1.655.356-3.148.584-4.652.046-.306.094-.627.135-.909.214-1.456.436-2.96.8-4.4.314-1.26.707-2.523,1.086-3.744.3-.966.611-1.965.881-2.958.194-.714.412-1.434.622-2.131a32.606,32.606,0,0,0,1.3-5.4,9.763,9.763,0,0,1,.254-1.208,6.408,6.408,0,0,0,.279-1.764,25.471,25.471,0,0,0-1.257-6.182,12.776,12.776,0,0,0-5.077-7.371,7.843,7.843,0,0,0-4.328-1.6A5.6,5.6,0,0,0,135.394,34.8Zm13.571-13.186a2.061,2.061,0,0,0-.942.2,1.1,1.1,0,0,0-.56.7.833.833,0,0,0,.129.689,3.93,3.93,0,0,0,1.174,1.167,2.2,2.2,0,0,1,1.074,1.874,3.389,3.389,0,0,1-.771,2.155,3.664,3.664,0,0,1-1.882,1.4c-1.241.307-2.525.525-3.767.735h-.007l-.891.152-.09.015c-.243.04-.452.074-.554.224a.615.615,0,0,0-.036.477,12.206,12.206,0,0,1,.167,4.785c-.018.1.165.254.274.348.145.124.3.242.449.357a5.664,5.664,0,0,1,.789.685c.38.423.739.877,1.088,1.316.239.3.486.612.738.912a.409.409,0,0,0,.266.082.192.192,0,0,0,.127-.032c.323-.309.643-.632.953-.944l0,0c.36-.364.733-.739,1.112-1.095.844-.79,1.767-1.617,2.821-2.526a1.28,1.28,0,0,1,.465-.211c.077-.024.157-.048.231-.078-.031.072-.062.145-.092.216v0c-.081.192-.164.39-.262.577-.017.033-.066.046-.118.06a.316.316,0,0,0-.12.05l-.047.041c-.1.086-.187.16-.177.242s.094.143.266.226a9.518,9.518,0,0,1,1.234.752h0c.164.112.333.227.5.336a12.125,12.125,0,0,0,6.687,2.115,11.56,11.56,0,0,0,1.861-.154,4.588,4.588,0,0,0,2.215-.939,4.153,4.153,0,0,0,1.3-2.024,2.544,2.544,0,0,0,.145-1.78c-.175-.384-.576-.674-1.432-1.034l-.162-.068a5.315,5.315,0,0,1-1.177-.606,1.829,1.829,0,0,1-.713-1.115.672.672,0,0,1,.864-.475h0c.17.778.756,1.042,1.377,1.321a2.737,2.737,0,0,0,.908.3c.32,0,.371-.3.371-1.032,0-1.532,0-1.532,1.343-2.009.419-.149.622-.286.7-.475s.033-.434-.151-.828a6.478,6.478,0,0,1-.735-3.6c.2-1.745.342-3.31.434-4.784a15.161,15.161,0,0,0-.021-3.087,9.612,9.612,0,0,0-.555-1.9c-.1-.265-.2-.538-.287-.81a.944.944,0,0,0-.908-.743,1.343,1.343,0,0,0-.453.086c-.408.147-.826.292-1.23.431a34.835,34.835,0,0,0-3.375,1.3,11.4,11.4,0,0,0-3.2,2.078,12.657,12.657,0,0,0-1.845,3.042,12.08,12.08,0,0,0-1.244,4.665,9.862,9.862,0,0,1-.263,1.95v0c-.062.305-.127.621-.175.933a.446.446,0,0,1-.059.142c-.012.022-.024.043-.034.065l-.016-.061c-.012-.046-.025-.091-.034-.137-.06-.319-.117-.643-.171-.956v0c-.124-.71-.253-1.445-.425-2.156a12.276,12.276,0,0,0-.819-2.5,2.632,2.632,0,0,0-2.262-1.053h0Zm2.671-15.971c-.248.07-.575.138-.953.218h0c-1.848.386-4.94,1.033-7.3,3.505-.262.318-.535.636-.8.944h0a25.391,25.391,0,0,0-1.732,2.171A11.391,11.391,0,0,0,139.081,17a10.589,10.589,0,0,0,.156,4.923c.285.95.613,1.9.93,2.824.367,1.069.747,2.174,1.063,3.279a1.661,1.661,0,0,0,1.123,1.171,4.935,4.935,0,0,0,1.643.282,5.6,5.6,0,0,0,4.578-2.569c.391-.578.157-.816-.229-1.21a10.051,10.051,0,0,1-1.4-1.823,2.1,2.1,0,0,1-.308-1.445,2.661,2.661,0,0,1,.645-1.3,2.262,2.262,0,0,1,1.739-.789,2.76,2.76,0,0,1,.907.158,4.475,4.475,0,0,1,2.419,2.219,1.044,1.044,0,0,1,.063.151c.009.023.017.048.027.071l.017-.035v0a.614.614,0,0,0,.038-.085c.082-.251.163-.507.24-.755a12.357,12.357,0,0,1,1.671-3.777,14.681,14.681,0,0,1,2.189-2.459,9.81,9.81,0,0,1,2.141-1.249l.327-.157c.253-.122.51-.249.759-.372l.011-.006a23.378,23.378,0,0,1,3.293-1.421l.337-.1.029-.009h-.006l-.011,0-.024,0s0,0,0,0c0-.018.427-.205,3.345-1.257a4.193,4.193,0,0,0,3-3.259,6.575,6.575,0,0,0-.478-3.51,6.567,6.567,0,0,0-1.533-2.374.7.7,0,0,0-.38-.18.2.2,0,0,0-.042,0,.474.474,0,0,0-.265.348,2.9,2.9,0,0,1-1.405,1.971,7.467,7.467,0,0,1-4.224,1.065c-.3,0-.606-.011-.918-.033-2.291-.158-2.881-.19-3.124-.19a.867.867,0,0,0-.19.015h0l-.031.006a3.078,3.078,0,0,1-.472.021h-.077A37.923,37.923,0,0,0,151.636,5.642ZM163.3,25.561c-.635-.24-.331-2.186.3-2.186.593,0,.347,2.2-.214,2.2A.236.236,0,0,1,163.3,25.561Zm-2.19-5.741c.3-.031,3.233.532,4.408.569.68.022.035.75-.078.755-.046,0-.094,0-.144,0C163.746,21.147,160.706,20.205,161.112,19.82Z" transform="translate(0 0)" fill="#00160a"/>
    <path id="Path-5" data-name="Path" d="M16.862,7.523c-1.269-.372-1.57-2.3-2.849-2.628s-2.482,1.17-3.744.828C9.41,5.49,9.009,4.542,8.534,3.791,8.072,3.06,7.1,2.4,6.4,2.872l-.057.042c-.965.761-2.412.28-3.383-.472A10.978,10.978,0,0,0,0,.289c.612-.6,1.674-.166,2.267.458s1.075,1.445,1.9,1.695c1.262.382,2.684-.79,3.876-.224.741.352,1.042,1.22,1.486,1.91s1.409,1.268,2.039.743A3.2,3.2,0,0,1,16.414,6.3C16.585,6.854,17.34,7.663,16.862,7.523Z" transform="translate(127.984 37.871)" fill="#e7eaee"/>
    <path id="Fill_6" data-name="Fill 6" d="M.05.155C3.574,2.231,14.614,8.347,22.707,8.55l66.938.211s35.2-12.378,9.463-7.707c-1.456.264-5.628,2.759-12.334,3.3-12.26.994-64.067.359-64.067.359S-.877-.391.05.155Z" transform="translate(69.128 189.677)" fill="#e7eaee"/>
    <path id="Path-6" data-name="Path" d="M0,1.068C.082.976.182.911.244.937c.7.292,1.112.038,1.326-.658C1.606.163,1.787.092,1.9,0c.1.14.3.279.3.419a.765.765,0,0,0,.644.82c.188.059.3.36.446.551-.147.034-.369.022-.426.112a1.444,1.444,0,0,0-.193.638,3.752,3.752,0,0,0,.095.571c.021.252-.019.437-.316.183-.593-.507-1.108-.317-1.615.161a1.505,1.505,0,0,1-.512.2,2.823,2.823,0,0,1,.1-.472A2.044,2.044,0,0,0,0,1.068Z" transform="translate(11.691 147.585)" fill="#7fd9b2"/>
  </g>
  <ellipse id="Oval" cx="2.557" cy="2.557" rx="2.557" ry="2.557" transform="translate(168.784 27.763)" fill="#7fd9b2"/>
  <path id="Shape" d="M30.518,20.134h0a18.975,18.975,0,0,1-2.472-.385c-1.6-.367-2.6-.868-2.99-1.49l-.058-.1a1.781,1.781,0,0,0-1.688-.806,5.807,5.807,0,0,0-1.646.278l-.33.1-.165.048a5.639,5.639,0,0,1-1.494.234,1.783,1.783,0,0,1-1.679-.8,7,7,0,0,0-5.97-3.392,6.371,6.371,0,0,0-.835.055c-.133.018-.27.04-.4.061a6.223,6.223,0,0,1-.97.1,2.115,2.115,0,0,1-.673-.1,3.488,3.488,0,0,1-1.682-1.766,3.66,3.66,0,0,0-1.627-1.758,1.906,1.906,0,0,0-.684-.126,5,5,0,0,0-2.28.861l-.017.01a5.04,5.04,0,0,1-2.332.87A2.043,2.043,0,0,1,0,11.975,16.309,16.309,0,0,1,4.014,9.728a3.638,3.638,0,0,1,1.279-.3,1.871,1.871,0,0,1,.225.013,3.3,3.3,0,0,1,2.129,1.753l.294.454.1.147c.4.589,1.224,1.576,2.22,1.576a1.529,1.529,0,0,0,.375-.047,6.529,6.529,0,0,1,1.6-.2,7.251,7.251,0,0,1,3.334.827,6.835,6.835,0,0,1,2.56,2.279,2.24,2.24,0,0,0,2.041.89,9.288,9.288,0,0,0,1.872-.244l.186-.04a5.885,5.885,0,0,1,1.254-.138,3.7,3.7,0,0,1,1.561.3,1.579,1.579,0,0,1,.914,1.043l.018.079a1.116,1.116,0,0,0,.7.789,2.96,2.96,0,0,0,1.18.22h.1l.253-.009a3.212,3.212,0,0,1,1.768.429,1.549,1.549,0,0,1,.534.561l.014.024ZM31.9,15.556h0a2.49,2.49,0,0,0-2.195-2.16,1.55,1.55,0,0,0-.507.085l-.07.026a1.114,1.114,0,0,1-.414.079,2.328,2.328,0,0,1-1.673-1.074l-.119-.162-.18-.247a2.814,2.814,0,0,0-1.483-1.251,1.6,1.6,0,0,0-.378-.045,3.637,3.637,0,0,0-1.589.531,4.5,4.5,0,0,1-1.463.543,2.26,2.26,0,0,1-.26.015c-1.245,0-2.208-1.048-3.14-2.062L18.4,9.8c-.917-1-1.865-2.029-3.033-2.029a2.127,2.127,0,0,0-.468.053,4.007,4.007,0,0,0-.79.3,3.341,3.341,0,0,1-.938.328,1.845,1.845,0,0,1-.249.017c-.956,0-1.648-.763-2.381-1.571A7.712,7.712,0,0,0,9.172,5.616a3.111,3.111,0,0,0-1.72-.5,3.16,3.16,0,0,0-1.877.6c.04-.95,1.046-1.462,1.971-1.462a2.353,2.353,0,0,1,.875.163,6.637,6.637,0,0,1,2.011,1.5c.271.261.55.53.841.772a3.781,3.781,0,0,0,2.273.938,1.879,1.879,0,0,0,1.006-.274l.076-.05a1.662,1.662,0,0,1,.964-.3,4.151,4.151,0,0,1,2.785,1.643l.341.408c.845,1.006,1.77,1.988,2.956,1.988.055,0,.11,0,.165-.006a4.264,4.264,0,0,0,1.507-.521,3.755,3.755,0,0,1,1.591-.511,1.733,1.733,0,0,1,.256.019,3.551,3.551,0,0,1,1.95,1.453c.608.707,1.182,1.374,2,1.374a1.536,1.536,0,0,0,.165-.009,3.829,3.829,0,0,1,.411-.022,4.024,4.024,0,0,1,2.661,1.014l-.048.145A15.586,15.586,0,0,0,31.9,15.556Zm.4-6.321h0l-.231-.165a6.6,6.6,0,0,0-3.626-1.54h-.082c-.147,0-.3.016-.442.029-.169.015-.344.03-.514.03a1.842,1.842,0,0,1-.53-.068A2.906,2.906,0,0,1,25.465,6.21a2.811,2.811,0,0,0-1.44-1.315,1.5,1.5,0,0,0-.379-.048,3.686,3.686,0,0,0-1.488.463,3.686,3.686,0,0,1-1.487.463,1.494,1.494,0,0,1-.391-.051c-.706-.192-1.1-.866-1.485-1.518-.081-.138-.165-.28-.249-.414a2.185,2.185,0,0,0-1.607-1.078.917.917,0,0,0-.524.159l-.057.042a1.841,1.841,0,0,1-1.17.384,3.832,3.832,0,0,1-2.213-.856c-.288-.223-.568-.473-.838-.715A6.331,6.331,0,0,0,10.013.289,1.008,1.008,0,0,1,10.748,0a2.287,2.287,0,0,1,1.531.746c.15.157.295.33.435.5a3.324,3.324,0,0,0,1.464,1.2,1.9,1.9,0,0,0,.559.078,5.187,5.187,0,0,0,1.295-.23l.007,0a5.145,5.145,0,0,1,1.272-.228,1.7,1.7,0,0,1,.744.157,2.96,2.96,0,0,1,1.171,1.371c.1.18.2.367.314.539a1.994,1.994,0,0,0,1.47.946.866.866,0,0,0,.569-.2,2.765,2.765,0,0,1,1.8-.617,3.491,3.491,0,0,1,1.868.549,2.765,2.765,0,0,1,1.182,1.5,1.037,1.037,0,0,0,1.092.605,1.985,1.985,0,0,0,.38-.036c.138-.027.279-.062.416-.1a3.662,3.662,0,0,1,.872-.147,1.352,1.352,0,0,1,.412.06,2.351,2.351,0,0,1,.918.679,2.692,2.692,0,0,0,.816.645,1.313,1.313,0,0,0,.521.1,1.991,1.991,0,0,0,1.49-.793l.047-.063c.071-.1.128-.152.164-.152a.036.036,0,0,1,.033.023,1.869,1.869,0,0,1-.368,1.1,5.068,5.068,0,0,1-.828.929l-.092.075Z" transform="translate(127.104 41.889)" fill="#7fd9b2"/>
  <path id="Combined_Shape-3" data-name="Combined Shape" d="M27.18,51.009a4.157,4.157,0,0,1,1.511-1.8l.128-.035a1.247,1.247,0,0,1,.505-.029l.093.013.12.018c.058.009.1.015.148.02a2.1,2.1,0,0,0,1.055-.193,1.6,1.6,0,0,0,.726-.6l.091-.12a2.308,2.308,0,0,1,1.253-.979,1.179,1.179,0,0,1,1.092.056l.084.05a1.551,1.551,0,0,0,.725.076c.2-.008.365-.015.383.03a1.6,1.6,0,0,1-1.33.264l-.081-.049a.756.756,0,0,0-.768-.047,1.789,1.789,0,0,0-.969.748l-.091.121a2.123,2.123,0,0,1-.981.823,2.559,2.559,0,0,1-1.28.226l-.08-.01-.234-.035a.882.882,0,0,0-.385.009l-.073.02c-.493.137-1.5,1.423-1.634,1.423Zm-4.75-2.923a4.158,4.158,0,0,1,1.511-1.8l.127-.035a1.253,1.253,0,0,1,.505-.029l.094.013.12.018c.058.009.1.015.148.02a2.1,2.1,0,0,0,1.055-.193,1.594,1.594,0,0,0,.725-.6l.091-.121a2.308,2.308,0,0,1,1.253-.979,1.178,1.178,0,0,1,1.092.056l.084.05a1.55,1.55,0,0,0,.725.076c.2-.008.365-.015.383.03a1.6,1.6,0,0,1-1.33.264l-.081-.049a.757.757,0,0,0-.768-.047,1.789,1.789,0,0,0-.969.748l-.091.121a2.121,2.121,0,0,1-.981.823,2.559,2.559,0,0,1-1.28.226l-.08-.01-.234-.035a.884.884,0,0,0-.385.009l-.073.02c-.493.137-1.5,1.423-1.634,1.423Zm-4.06-2.951a4.159,4.159,0,0,1,1.511-1.8l.128-.035a1.247,1.247,0,0,1,.505-.029l.093.013.12.018c.058.009.1.015.148.019a2.093,2.093,0,0,0,1.055-.192,1.6,1.6,0,0,0,.726-.6l.091-.12A2.309,2.309,0,0,1,24,41.432a1.178,1.178,0,0,1,1.092.056l.084.05a1.548,1.548,0,0,0,.725.076c.2-.008.365-.015.382.03a1.6,1.6,0,0,1-1.33.264l-.081-.049a.756.756,0,0,0-.768-.047,1.789,1.789,0,0,0-.969.748l-.091.121a2.123,2.123,0,0,1-.981.823,2.559,2.559,0,0,1-1.28.226l-.08-.01-.234-.035a.882.882,0,0,0-.385.009l-.073.02c-.493.137-1.5,1.423-1.634,1.423Zm-5.884-3.515A5.123,5.123,0,0,1,14.7,39.766l.162-.015a1.548,1.548,0,0,1,.619.072l.11.036.142.048c.069.023.122.04.175.055a2.579,2.579,0,0,0,1.321-.008,1.964,1.964,0,0,0,1.009-.576l.136-.127a2.846,2.846,0,0,1,1.729-.92,1.451,1.451,0,0,1,1.313.3l.09.079c.3.268,1.3.234,1.321.365a1.966,1.966,0,0,1-1.67.036l-.087-.077a.931.931,0,0,0-.922-.222,2.2,2.2,0,0,0-1.336.7l-.136.127a2.619,2.619,0,0,1-1.366.788,3.156,3.156,0,0,1-1.6,0l-.1-.029-.277-.093a1.086,1.086,0,0,0-.469-.071l-.093.008c-.621.06-2.1,1.377-2.282,1.377A.022.022,0,0,1,12.486,41.621ZM8.467,38.333a5.123,5.123,0,0,1,2.217-1.855l.162-.015a1.548,1.548,0,0,1,.619.072l.11.036.142.048c.069.023.122.04.175.055a2.579,2.579,0,0,0,1.321-.008,1.962,1.962,0,0,0,1.009-.576l.137-.127a2.846,2.846,0,0,1,1.729-.92,1.45,1.45,0,0,1,1.313.3l.091.079c.3.268,1.3.234,1.321.365a1.966,1.966,0,0,1-1.67.036l-.088-.077a.931.931,0,0,0-.921-.222,2.2,2.2,0,0,0-1.336.7l-.136.127a2.619,2.619,0,0,1-1.366.788,3.156,3.156,0,0,1-1.6,0l-.1-.029-.277-.093a1.086,1.086,0,0,0-.469-.071l-.093.008c-.621.06-2.1,1.377-2.282,1.377A.022.022,0,0,1,8.467,38.333ZM3.144,33.611c-.109-.1,2.125-1.951,3.094-1.879l.2.02A1.871,1.871,0,0,1,7.186,32l.129.074.164.1c.08.047.141.083.2.116a3.073,3.073,0,0,0,1.624.315,2.292,2.292,0,0,0,1.354-.5l.193-.132a3.318,3.318,0,0,1,2.309-.776,1.8,1.8,0,0,1,1.552.718l.1.125c.318.425,1.543.626,1.549.8a2.334,2.334,0,0,1-2.058-.365l-.092-.122a1.162,1.162,0,0,0-1.087-.517,2.57,2.57,0,0,0-1.781.587l-.193.132a3.055,3.055,0,0,1-1.836.694,3.755,3.755,0,0,1-1.966-.395l-.111-.061-.321-.19a1.327,1.327,0,0,0-.562-.209l-.116-.012A4.43,4.43,0,0,0,4.472,33a8.541,8.541,0,0,1-1.3.621A.038.038,0,0,1,3.144,33.611Zm8.915-6.174-.07-.136a1.161,1.161,0,0,0-.981-.7,2.568,2.568,0,0,0-1.856.269l-.213.1a3.055,3.055,0,0,1-1.928.365,3.756,3.756,0,0,1-1.868-.73l-.1-.08-.284-.242a1.322,1.322,0,0,0-.517-.3l-.112-.032a4.708,4.708,0,0,0-1.937.33,4.877,4.877,0,0,1-1.322.346C.784,26.5,3.3,25.07,4.246,25.31l.2.054a1.876,1.876,0,0,1,.691.373l.114.1.145.125c.07.06.125.106.181.149a3.071,3.071,0,0,0,1.544.593,2.292,2.292,0,0,0,1.421-.261l.213-.1a3.317,3.317,0,0,1,2.408-.364,1.8,1.8,0,0,1,1.4.976l.072.14c.239.474,1.411.884,1.386,1.06,0,.035-.072.051-.178.051C13.411,28.205,12.318,27.926,12.059,27.438ZM11.072,20.5l-.066-.136a1.1,1.1,0,0,0-.926-.7,2.308,2.308,0,0,0-1.753.269l-.2.1a2.748,2.748,0,0,1-1.821.365,3.437,3.437,0,0,1-1.764-.73l-.094-.079-.268-.242a1.236,1.236,0,0,0-.488-.3l-.106-.032a4.224,4.224,0,0,0-1.829.331,4.4,4.4,0,0,1-1.249.346c-.084-.121,2.3-1.553,3.186-1.313l.185.055a1.738,1.738,0,0,1,.653.373l.108.1.137.125c.066.06.118.106.171.149a2.81,2.81,0,0,0,1.459.592A2.059,2.059,0,0,0,7.748,19.5l.2-.1a2.982,2.982,0,0,1,2.274-.364,1.711,1.711,0,0,1,1.325.976l.068.14c.226.474,1.333.884,1.309,1.06,0,.035-.068.051-.168.051C12.349,21.264,11.316,20.985,11.072,20.5Zm0-6.941-.066-.136a1.1,1.1,0,0,0-.926-.7,2.309,2.309,0,0,0-1.753.268l-.2.1a2.748,2.748,0,0,1-1.821.365,3.437,3.437,0,0,1-1.764-.73l-.094-.079L4.18,12.4a1.232,1.232,0,0,0-.488-.3l-.106-.032a4.224,4.224,0,0,0-1.829.331,4.4,4.4,0,0,1-1.249.346c-.084-.121,2.3-1.553,3.186-1.313l.185.055a1.738,1.738,0,0,1,.653.373l.108.1.137.125c.066.06.118.106.171.149a2.81,2.81,0,0,0,1.459.592,2.059,2.059,0,0,0,1.342-.261l.2-.1a2.982,2.982,0,0,1,2.274-.364,1.711,1.711,0,0,1,1.325.976l.068.14c.226.474,1.333.884,1.309,1.06,0,.035-.068.051-.168.051C12.349,14.324,11.316,14.044,11.072,13.556Zm.256-5.845-.07-.136a1.161,1.161,0,0,0-.981-.7,2.568,2.568,0,0,0-1.856.269l-.213.1a3.054,3.054,0,0,1-1.928.365,3.756,3.756,0,0,1-1.868-.73l-.1-.08L4.03,6.555a1.322,1.322,0,0,0-.517-.3L3.4,6.22a4.708,4.708,0,0,0-1.937.33A4.88,4.88,0,0,1,.142,6.9C.053,6.775,2.573,5.343,3.516,5.583l.2.054a1.877,1.877,0,0,1,.691.373l.114.1.145.125c.07.06.125.106.181.149a3.074,3.074,0,0,0,1.545.593,2.292,2.292,0,0,0,1.421-.261l.213-.1a3.317,3.317,0,0,1,2.408-.364,1.8,1.8,0,0,1,1.4.976l.072.14c.239.474,1.411.884,1.386,1.06,0,.035-.072.051-.178.051C12.681,8.479,11.587,8.2,11.329,7.711Zm.737-5.259L11.99,2.3A1.26,1.26,0,0,0,10.932,1.5a2.641,2.641,0,0,0-2,.305l-.23.11a3.147,3.147,0,0,1-2.079.415A3.934,3.934,0,0,1,4.608,1.5c-.036-.029-.07-.059-.107-.09L4.2,1.136A1.408,1.408,0,0,0,3.638.792L3.517.755a4.836,4.836,0,0,0-2.089.376A5.033,5.033,0,0,1,0,1.525C-.093,1.387,2.624-.242,3.64.031l.211.062A1.986,1.986,0,0,1,4.6.517L4.72.625l.156.142c.076.069.135.12.2.17a3.212,3.212,0,0,0,1.666.674,2.355,2.355,0,0,0,1.533-.3L8.5,1.2A3.415,3.415,0,0,1,11.1.791,1.954,1.954,0,0,1,12.61,1.9l.078.159c.258.539,1.522,1.006,1.494,1.206-.005.039-.077.058-.192.058C13.523,3.325,12.344,3.008,12.065,2.452Z" transform="translate(141.975 64.583)" fill="#7fd9b2"/>
</svg>
